<?xml version="1.0" encoding="utf-8"?>
<svg id="master-artboard" viewBox="0 0 649 485" version="1.1" xmlns="http://www.w3.org/2000/svg" x="0px" y="0px" style="enable-background:new 0 0 649 485;" width="649px" height="485px">

<g transform="matrix(1, 0, 0, 1, 0, -7.105427357601002e-15)">
		<path d="M 0 0 H 649 V 485 H 0 V 0 Z" class="st0" style="fill: rgb(255, 255, 255); stroke: rgb(0, 0, 0); stroke-width: 0; fill-opacity: 0;"/>
		
			<linearGradient id="SVGID_1_" gradientUnits="userSpaceOnUse" x1="-592.9728" y1="-359.2991" x2="264.1621" y2="698.54" gradientTransform="matrix(0 1 1 0 196.9688 441.0313)">
			<stop offset="0.1923" style="stop-color:#D6DE23"/>
			<stop offset="0.3242" style="stop-color:#FFFFFF"/>
			<stop offset="0.478" style="stop-color:#FFFFFF"/>
			<stop offset="0.8242" style="stop-color:#D6DE23"/>
		</linearGradient>
		<path d="M 0 0 H 649 V 485 H 0 V 0 Z" class="st1" style="opacity: 0.65; fill: rgb(255, 255, 255); stroke: rgb(0, 0, 0); stroke-width: 0; fill-opacity: 0;"/>
	</g>

<g transform="matrix(1, 0, 0, 1, 0, -7.105427357601002e-15)">
		<g>
			<g>
				<path class="st3" d="M229.2,189.8c0,0,35.9,4.9,43.5-8c4.9-8.3-3.5-8.7-3.5-8.7S280.5,193.2,229.2,189.8z" style="fill: rgb(0, 0, 0); stroke: rgb(0, 0, 0); stroke-width: 0; fill-opacity: 1;"/>
				<path class="st4" d="M244.2,191.1c-8.2,0-15-0.9-15.1-0.9l0.1-0.9c3.9,0.3,7.6,0.4,11,0.4c19.6,0,26.3-4.5,28.5-8.2&#10;&#9;&#9;&#9;&#9;&#9;c2.3-4,0.1-8.1,0.1-8.1l-0.4-0.7l0.8,0c0.1,0,3.7,0.2,5,2.7c0.9,1.7,0.5,3.9-1.1,6.7C268.7,189.6,254.9,191.1,244.2,191.1z&#10;&#9;&#9;&#9;&#9;&#9; M270,173.7c0.6,1.5,1.5,4.9-0.4,8.2c-2.3,3.9-7.7,6.6-16,7.8c8-0.8,15.8-3.1,18.8-8.2c1.5-2.5,1.8-4.4,1.1-5.8&#10;&#9;&#9;&#9;&#9;&#9;C272.7,174.4,271,173.9,270,173.7z" style="fill: rgb(0, 0, 0); stroke: rgb(0, 0, 0); stroke-width: 0; fill-opacity: 1;"/>
			</g>
		</g>
		<g>
			<g>
				<path class="st3" d="M355.7,180c0,0,32-25.6,27.4-41.8c-3-10.4-10.5-5.3-10.5-5.3S398.5,140.6,355.7,180z" style="fill: rgb(0, 0, 0); stroke: rgb(0, 0, 0); stroke-width: 0; fill-opacity: 1;"/>
				<path class="st4" d="M356,180.3l-0.6-0.7c22.5-20.7,25.6-32.4,24.2-38.6c-1.4-6-7.1-7.7-7.2-7.8l-0.9-0.3l0.8-0.6&#10;&#9;&#9;&#9;&#9;&#9;c0.1-0.1,2-1.3,4.4-1.3c2.2,0,5.3,1.2,6.9,6.9c2,6.9-2.1,16.1-12,27.4C364.1,173.8,356.1,180.3,356,180.3z M373.6,132.8&#10;&#9;&#9;&#9;&#9;&#9;c1.8,0.8,5.7,3.1,6.8,8.1c1.4,6-1.5,13.6-8.7,22.8c6.9-8.1,13-17.9,10.9-25.4c-1.2-4.1-3.2-6.2-6-6.2&#10;&#9;&#9;&#9;&#9;&#9;C375.4,132.1,374.4,132.4,373.6,132.8z" style="fill: rgb(0, 0, 0); stroke: rgb(0, 0, 0); stroke-width: 0; fill-opacity: 1;"/>
			</g>
		</g>
		<g>
			<g>
				<path class="st3" d="M288.1,148.4C272,170.9,230.7,188,201.3,191c18.6-3.3,30-6.7,40.6-12.5c34.5-18.7,25.8-35.1,25.8-35.1&#10;&#9;&#9;&#9;&#9;&#9;s-3.8-4.6,1-12.6c3.5-5.8,10.6-5.3,10.6-5.3c-3.3-6.3,1.1-14,1.1-14.7c0.2-1.6,0.3-3.4,0-5c-0.1-0.4-0.2-0.8-0.3-1.2&#10;&#9;&#9;&#9;&#9;&#9;C292.1,112.7,300.6,130.8,288.1,148.4z" style="fill: rgb(0, 0, 0); stroke: rgb(0, 0, 0); stroke-width: 0; fill-opacity: 1;"/>
				<path class="st4" d="M201.3,191.5l-0.1-0.9c18.7-3.3,30-6.8,40.4-12.4c17.6-9.6,23.6-18.5,25.6-24.2c2-5.9,0.2-9.8,0-10.2&#10;&#9;&#9;&#9;&#9;&#9;c-0.4-0.5-3.7-5.3,1-13.1c2.9-4.8,8.2-5.5,10.2-5.6c-2.3-5.3,0.2-11.3,1.1-13.6c0.1-0.3,0.3-0.7,0.3-0.8c0.2-1.4,0.3-3.2,0-4.9&#10;&#9;&#9;&#9;&#9;&#9;c-0.1-0.4-0.2-0.8-0.3-1.1l-0.4-1.3l1.1,0.8c7.3,4.9,12.5,12.7,14,21c1.5,8-0.5,16.1-5.8,23.5&#10;&#9;&#9;&#9;&#9;&#9;C272.3,171.3,230.6,188.5,201.3,191.5z M278.8,125.9c-1.6,0-7,0.4-9.8,5.1c-4.6,7.6-1.2,11.9-1.1,12.1&#10;&#9;&#9;&#9;&#9;&#9;c0.4,0.8,8.6,17.1-25.9,35.8c-3.1,1.7-6.2,3.2-9.7,4.5c22.3-7.6,44.6-20.2,55.3-35.4c5.1-7.1,7-15,5.6-22.7&#10;&#9;&#9;&#9;&#9;&#9;c-1.4-7.6-6.1-14.9-12.6-19.7c0.4,1.8,0.2,3.7,0,5.1c0,0.2-0.1,0.4-0.4,1c-1,2.3-3.5,8.3-0.8,13.5l0.4,0.7l-0.8-0.1&#10;&#9;&#9;&#9;&#9;&#9;C279.1,125.9,279,125.9,278.8,125.9z" style="fill: rgb(0, 0, 0); stroke: rgb(0, 0, 0); stroke-width: 0; fill-opacity: 1;"/>
			</g>
		</g>
		<g>
			<g>
				<path class="st3" d="M365.7,163.6c-9.1,17.4-36.4,33.3-56.8,38.2c12.7-4.1,20.4-7.6,27.2-12.6c22.4-16.4,14.7-27.1,14.7-27.1&#10;&#9;&#9;&#9;&#9;&#9;s-3.1-2.9-0.5-8.9c1.9-4.4,6.9-4.8,6.9-4.8c-2.9-4.1-0.6-9.9-0.6-10.4c0-1.2-0.1-2.4-0.5-3.5c-0.1-0.3-0.2-0.5-0.3-0.8&#10;&#9;&#9;&#9;&#9;&#9;C365.1,138.2,372.8,150.1,365.7,163.6z" style="fill: rgb(0, 0, 0); stroke: rgb(0, 0, 0); stroke-width: 0; fill-opacity: 1;"/>
				<path class="st4" d="M309,202.3l-0.3-0.9c12.8-4.1,20.4-7.6,27.1-12.6c21.1-15.5,15-25.8,14.6-26.4c-0.4-0.4-3.1-3.5-0.6-9.4&#10;&#9;&#9;&#9;&#9;&#9;c1.6-3.6,5-4.6,6.6-4.9c-2-3.5-0.9-7.9-0.4-9.6c0.1-0.3,0.1-0.4,0.1-0.5c0-1-0.1-2.2-0.5-3.4c-0.1-0.3-0.2-0.5-0.3-0.7l-0.6-1.2&#10;&#9;&#9;&#9;&#9;&#9;l1.2,0.6c5.6,2.7,10.1,7.8,11.9,13.5c1.8,5.5,1.2,11.4-1.8,17.1C357,181.3,329.4,197.4,309,202.3z M356.7,134.7&#10;&#9;&#9;&#9;&#9;&#9;c0.3,1.2,0.4,2.4,0.4,3.3c0,0.1,0,0.3-0.2,0.8c-0.4,1.7-1.6,6.1,0.7,9.4l0.5,0.7l-0.8,0.1c0,0-4.8,0.4-6.5,4.5&#10;&#9;&#9;&#9;&#9;&#9;c-2.5,5.7,0.4,8.4,0.4,8.4c0.4,0.5,7.8,11.3-14.7,27.8c-0.9,0.7-1.8,1.3-2.8,1.9c13.5-7.3,26.1-17.5,31.7-28.1&#10;&#9;&#9;&#9;&#9;&#9;c2.9-5.5,3.5-11.1,1.7-16.4C365.4,142,361.6,137.4,356.7,134.7z" style="fill: rgb(0, 0, 0); stroke: rgb(0, 0, 0); stroke-width: 0; fill-opacity: 1;"/>
			</g>
		</g>
		<g>
			<g>
				<path class="st3" d="M96.3,228.4c10.7-4.2,38.8-15.1,56.8-4.8c18.7,10.8,3.7,35.5-8.5,35.4c0,0-7.4,0.6-9.6-4&#10;&#9;&#9;&#9;&#9;&#9;c-1.8-3.9-1.2-6.8,1.9-6.9c3.1-0.1,3.5,3.5,2.5,5.3c-1,1.8,1.8,3.9,4.4,3.7c3.6-0.2,7.6-1.7,7.8-6.3c0.2-4.4-4.2-4.8-1.7-10.3&#10;&#9;&#9;&#9;&#9;&#9;c0,0-4.8,1.2-8-2.3c-4.3-4.9-2.3-8.6-2.3-8.6s-1.6-5.2-11-5.5c-13.3-0.5-41.3,4.4-52.9,20.6C75.5,244.7,82.4,233.8,96.3,228.4z" style="fill: rgb(0, 0, 0); stroke: rgb(0, 0, 0); stroke-width: 0; fill-opacity: 1;"/>
				<path class="st4" d="M143.7,259.6c-2.2,0-7.4-0.4-9.2-4.3c-1.2-2.5-1.4-4.7-0.6-6.1c0.6-0.9,1.5-1.4,2.8-1.5l0.2,0&#10;&#9;&#9;&#9;&#9;&#9;c1.2,0,2.2,0.6,2.8,1.6c0.7,1.3,0.8,3.2,0,4.5c-0.2,0.4-0.2,0.8,0.1,1.3c0.6,1.1,2.4,1.9,3.9,1.8c2.7-0.2,7.2-1.2,7.4-5.9&#10;&#9;&#9;&#9;&#9;&#9;c0.1-1.7-0.6-2.7-1.2-3.8c-0.9-1.5-1.9-3-0.8-5.9c-1.6,0.2-5.1,0.2-7.6-2.6c-4-4.5-2.8-8-2.5-8.9c-0.4-0.9-2.4-4.8-10.5-5.1&#10;&#9;&#9;&#9;&#9;&#9;c-0.6,0-1.2,0-1.8,0c-14.5,0-39.9,5.4-50.6,20.4l-0.8-0.5c0.1-0.1,7.1-11.1,20.9-16.5c7.6-3,23.4-9.1,38.5-9.1&#10;&#9;&#9;&#9;&#9;&#9;c7.3,0,13.6,1.5,18.6,4.4c7.5,4.4,10.6,11.6,8.3,19.9c-2.4,8.9-10.2,16.4-17,16.4C144.5,259.6,144.2,259.6,143.7,259.6z&#10;&#9;&#9;&#9;&#9;&#9; M136.9,248.7l-0.1,0c-1,0-1.7,0.4-2.1,1c-0.7,1.1-0.4,3,0.6,5.2c1.6,3.4,6.4,3.7,8.4,3.7c0.5,0,0.7,0,0.7,0l0.1,0&#10;&#9;&#9;&#9;&#9;&#9;c6.5,0,13.8-7.2,16.1-15.7c2.1-7.9-0.8-14.7-7.9-18.9c-4.9-2.8-11-4.3-18.2-4.3c-14.9,0-30.6,6.1-38.2,9.1&#10;&#9;&#9;&#9;&#9;&#9;c-3.7,1.4-6.9,3.3-9.6,5.2c12.4-7.5,29-10.4,39.7-10.4c0.7,0,1.3,0,1.9,0c9.6,0.4,11.4,5.7,11.5,5.9l0.1,0.2l-0.1,0.2&#10;&#9;&#9;&#9;&#9;&#9;c-0.1,0.1-1.8,3.5,2.2,8.1c1.8,2,4.1,2.4,5.7,2.4c1.1,0,1.8-0.2,1.8-0.2l0.9-0.2l-0.4,0.9c-1.3,3-0.5,4.3,0.4,5.9&#10;&#9;&#9;&#9;&#9;&#9;c0.7,1.1,1.5,2.4,1.4,4.3c-0.2,5.4-5.3,6.6-8.2,6.8c-1.9,0.1-4-0.9-4.8-2.2c-0.4-0.7-0.5-1.5-0.1-2.2c0.5-0.9,0.6-2.4,0-3.6&#10;&#9;&#9;&#9;&#9;&#9;C138.4,249.1,137.8,248.7,136.9,248.7z" style="fill: rgb(0, 0, 0); stroke: rgb(0, 0, 0); stroke-width: 0; fill-opacity: 1;"/>
			</g>
		</g>
		<g>
			<g>
				<path class="st3" d="M527.8,235.1c9.9-0.1,22.2,20,7,28.9c-7.9,4.6-18.2,4.1-27.4,2.1c-0.1-0.5-0.4-1.1-1.1-1.3&#10;&#9;&#9;&#9;&#9;&#9;c-0.8-0.2-1.3-1-1.7-1.8c3.9,0.5,7.4,0.7,10.1,0.6c7.7-0.3,9-4.5,9-4.5s-1.7-3,1.9-7c2.6-2.9,6.5-1.9,6.5-1.9&#10;&#9;&#9;&#9;&#9;&#9;c-2-4.5,1.6-4.9,1.4-8.4c-0.1-3.8-3.4-5-6.4-5.2c-2.1-0.1-4.4,1.6-3.6,3c0.8,1.5,0.4,4.4-2.1,4.4c-2.5-0.1-3-2.5-1.5-5.6&#10;&#9;&#9;&#9;&#9;&#9;C521.7,234.6,527.8,235.1,527.8,235.1z" style="fill: rgb(0, 0, 0); stroke: rgb(0, 0, 0); stroke-width: 0; fill-opacity: 1;"/>
				<path class="st4" d="M519.7,268c-3.8,0-8-0.5-12.5-1.5l-0.3-0.1l0-0.3c0-0.3-0.2-0.7-0.8-0.9c-0.9-0.3-1.5-1-2-2.1l-0.3-0.7&#10;&#9;&#9;&#9;&#9;&#9;l0.8,0.1c3.6,0.5,7.2,0.7,10,0.6c6.4-0.2,8.2-3.3,8.5-4c-0.3-0.8-1.2-3.7,2-7.3c2-2.2,4.7-2.3,6.1-2.2c-0.8-2.3,0-3.6,0.7-4.8&#10;&#9;&#9;&#9;&#9;&#9;c0.5-0.9,1.1-1.7,1-3c-0.1-3.6-3.3-4.5-5.9-4.7c-1.2-0.1-2.6,0.6-3.1,1.4c-0.2,0.3-0.2,0.6,0,0.9c0.6,1.1,0.6,2.7,0,3.7&#10;&#9;&#9;&#9;&#9;&#9;c-0.5,0.8-1.3,1.3-2.3,1.3l-0.1,0c-1.4,0-2.1-0.7-2.4-1.2c-0.7-1.1-0.5-2.9,0.5-5c1.5-3.2,5.8-3.5,7.6-3.5c0.4,0,0.7,0,0.7,0&#10;&#9;&#9;&#9;&#9;&#9;s0,0,0,0c5.6,0,12,6.1,14,13.4c1.8,6.8-0.7,12.8-6.8,16.3C530.9,266.8,525.7,268,519.7,268z M507.7,265.7&#10;&#9;&#9;&#9;&#9;&#9;c11.2,2.4,20.3,1.6,26.8-2.1c5.8-3.3,8.1-8.9,6.4-15.3c-1.9-6.9-7.8-12.7-13.1-12.7c-0.1,0-0.3,0-0.7,0c-1.6,0-5.5,0.3-6.8,3&#10;&#9;&#9;&#9;&#9;&#9;c-0.8,1.8-1,3.3-0.5,4.1c0.3,0.5,0.8,0.8,1.6,0.8c0,0,0,0,0,0c0.8,0,1.3-0.3,1.6-0.8c0.5-0.9,0.4-2.1,0-2.8&#10;&#9;&#9;&#9;&#9;&#9;c-0.3-0.6-0.3-1.2,0.1-1.9c0.7-1.1,2.4-2,4-1.9c4.3,0.3,6.7,2.3,6.8,5.6c0.1,1.6-0.6,2.6-1.1,3.6c-0.8,1.2-1.4,2.3-0.3,4.7&#10;&#9;&#9;&#9;&#9;&#9;l0.4,0.9l-0.9-0.2c0,0-0.6-0.1-1.5-0.1c-1.3,0-3.2,0.3-4.6,1.9c-3.3,3.7-1.9,6.4-1.8,6.5l0.1,0.2l-0.1,0.2&#10;&#9;&#9;&#9;&#9;&#9;c-0.1,0.2-1.5,4.6-9.4,4.9c-2.7,0.1-6-0.1-9.3-0.5c0.3,0.4,0.6,0.7,1,0.8C507,264.6,507.5,265,507.7,265.7z" style="fill: rgb(0, 0, 0); stroke: rgb(0, 0, 0); stroke-width: 0; fill-opacity: 1;"/>
			</g>
		</g>
		<g>
			<g>
				<path class="st3" d="M266,353.8c0,0,7.2,2,7.6,7.1c0.4,4.3-1.2,6.8-4.1,5.8c-2.9-1-2.1-4.6-0.5-5.9c1.6-1.3-0.3-4.3-2.8-5&#10;&#9;&#9;&#9;&#9;&#9;c-3.5-1-7.7-1.1-9.5,3.2c-1.7,4,2.3,6-1.9,10.3c0,0,5,0.5,6.7,5c2.4,6.1-0.8,8.9-0.8,8.9s-0.5,7.7,14,13.7&#10;&#9;&#9;&#9;&#9;&#9;c-2.9-0.5,2.9,5.6,0,4.8c-3-0.8-12.4-4.2-15-5.7c-5.1-3.2-11.3-7.9-13.8-11.8C232.1,362.6,254.6,349.5,266,353.8z" style="fill: rgb(0, 0, 0); stroke: rgb(0, 0, 0); stroke-width: 0; fill-opacity: 1;"/>
				<path class="st4" d="M275,402.1c-0.2,0-0.3,0-0.5-0.1c-3-0.8-12.5-4.2-15.1-5.8c-4.8-2.9-11.3-7.8-14-12&#10;&#9;&#9;&#9;&#9;&#9;c-6.2-9.7-4.7-16.9-2.3-21.3c3.4-6.2,10.9-10.5,18.1-10.5c1.8,0,3.5,0.3,5,0.8c0.3,0.1,7.5,2.2,7.9,7.4c0.2,2.5-0.2,4.4-1.2,5.5&#10;&#9;&#9;&#9;&#9;&#9;c-0.9,0.9-2.1,1.2-3.5,0.7c-1.2-0.4-2-1.2-2.2-2.4c-0.3-1.5,0.4-3.3,1.5-4.3c0.4-0.3,0.5-0.7,0.4-1.3c-0.2-1.1-1.4-2.5-3-2.9&#10;&#9;&#9;&#9;&#9;&#9;c-1.2-0.4-2.4-0.6-3.5-0.6c-2.7,0-4.5,1.2-5.5,3.5c-0.6,1.5-0.4,2.7-0.1,4c0.3,1.7,0.7,3.5-1.3,5.8c1.6,0.4,4.8,1.6,6.2,5.1&#10;&#9;&#9;&#9;&#9;&#9;c2.2,5.6-0.1,8.5-0.8,9.2c0.1,1.1,0.9,7.8,13.7,13.1l-0.3,0.9c-0.2,0-0.3,0-0.3,0c0,0.2,0.5,1.3,0.8,1.9c0.6,1.1,1.1,2,0.7,2.6&#10;&#9;&#9;&#9;&#9;&#9;C275.7,401.9,275.4,402.1,275,402.1z M261.2,353.4c-5.7,0-13.5,3.1-17.3,10c-2.3,4.1-3.7,11,2.2,20.3c2.5,4,9,8.8,13.7,11.7&#10;&#9;&#9;&#9;&#9;&#9;c2.5,1.5,12,4.9,14.8,5.7c0.1,0,0.2,0,0.3,0c-0.1-0.3-0.5-1.1-0.7-1.6c-0.6-1.1-1.1-2.1-0.8-2.8c-13.6-6-13.3-13.4-13.3-13.7&#10;&#9;&#9;&#9;&#9;&#9;l0-0.2l0.1-0.1c0.1-0.1,2.9-2.6,0.7-8.3c-1.6-4.1-6.3-4.7-6.3-4.7l-1-0.1l0.7-0.7c2.3-2.4,2-3.9,1.6-5.6&#10;&#9;&#9;&#9;&#9;&#9;c-0.3-1.3-0.5-2.7,0.2-4.5c1.1-2.7,3.3-4.1,6.3-4.1c1.1,0,2.4,0.2,3.7,0.6c1.8,0.5,3.4,2.1,3.7,3.6c0.2,0.9-0.1,1.6-0.7,2.2&#10;&#9;&#9;&#9;&#9;&#9;c-0.8,0.7-1.4,2.1-1.2,3.4c0.2,0.8,0.7,1.4,1.6,1.7c1.1,0.3,1.9,0.2,2.5-0.5c0.8-0.9,1.2-2.6,1-4.8c-0.4-4.6-7.2-6.6-7.3-6.6&#10;&#9;&#9;&#9;&#9;&#9;C264.5,353.7,262.9,353.4,261.2,353.4z" style="fill: rgb(0, 0, 0); stroke: rgb(0, 0, 0); stroke-width: 0; fill-opacity: 1;"/>
			</g>
		</g>
		<g>
			<g>
				<path class="st3" d="M294,74c6.1-15.3,18.7-26.8,32.7-32c14.1-5.4,29.3-4.6,41.5,0.5c12.3,4.8,22.2,12.9,29.1,21.6&#10;&#9;&#9;&#9;&#9;&#9;c14,17.8,16.1,37.2,15,49.3c-1.1,12.4-4.4,18.7-4.2,18.7c-0.2,0,2.8-6.4,3.7-18.7c0.8-12-1.8-31.1-15.8-48.2&#10;&#9;&#9;&#9;&#9;&#9;c-6.9-8.4-16.6-16-28.6-20.5c-11.8-4.7-26.3-5.2-39.6,0.1c-13.3,5.1-25.1,16.1-30.7,30.5c-6,14.2-3.5,32.1,7.3,44.4&#10;&#9;&#9;&#9;&#9;&#9;c10.5,12.3,28.3,18.1,42.4,11.7c14.1-5.6,23.3-21.2,20.1-34.9C364.1,82.8,350,73,337.8,75.9c-12.3,2.4-20.1,16-15.8,25.9&#10;&#9;&#9;&#9;&#9;&#9;c0.9,2.5,2.4,4.6,4.2,6.4c3.8,1.2,7-1.9,5.5-8.6c-0.5-2.1-0.3-3.8,0.2-5.2c-0.1,0.2-0.1,0.2-0.1,0.2c0,0,0.1-0.2,0.2-0.5&#10;&#9;&#9;&#9;&#9;&#9;c0.5-1.2,1.1-2.1,1.9-2.9c0.2-0.2,0.4-0.5,0.7-0.7c2.2-2.3,8.2-3.9,13.2,0.5c2.4,2,4.2,5.5,4.1,9.4c-0.1,3.9-2.3,8-5.9,10.8&#10;&#9;&#9;&#9;&#9;&#9;c-3.6,2.7-8.9,3.9-13.9,2.2c-4.9-1.6-9.4-5.5-11.6-10.9c-4.9-11,3.3-26,16.9-28.9c13.6-3.4,29.2,7.1,32.5,22.2&#10;&#9;&#9;&#9;&#9;&#9;c3.7,15.3-6.2,32.4-21.6,38.6c-7.6,3.3-16.6,3.9-24.8,1.4c-8.2-2.4-15.8-7.3-21.5-13.9C290.1,108.7,287.5,89.2,294,74z" style="fill: rgb(0, 0, 0); stroke: rgb(0, 0, 0); stroke-width: 0; fill-opacity: 1;"/>
				<path class="st4" d="M333.7,137.8c-3.6,0-7.2-0.5-10.6-1.5c-8.2-2.4-15.9-7.4-21.7-14.1c-11.5-13.1-14.7-32.5-7.8-48.4&#10;&#9;&#9;&#9;&#9;&#9;c5.8-14.7,18.1-26.8,33-32.3c6.5-2.5,13.3-3.7,20.3-3.7c7.4,0,14.9,1.4,21.5,4.2c14.5,5.7,23.9,14.9,29.3,21.7&#10;&#9;&#9;&#9;&#9;&#9;c15.9,20.2,15.8,41.4,15.1,49.6c-0.9,9.9-3.2,16-4,18c-0.1,0.4-0.2,0.6-0.2,0.7l-0.4-0.1l-0.1,0l0,0.5l-0.2,0l-0.1-0.2&#10;&#9;&#9;&#9;&#9;&#9;c0-0.1-0.1-0.1-0.1-0.2c0,0,0-0.1,0-0.1c0-0.2,0.1-0.4,0.3-0.9c0.7-2,2.8-8.1,3.4-17.8c0.5-8,0-28.7-15.7-47.8&#10;&#9;&#9;&#9;&#9;&#9;c-5.3-6.4-14.5-15.1-28.4-20.3c-6.1-2.4-12.8-3.7-19.5-3.7c-6.8,0-13.4,1.3-19.7,3.7c-13.8,5.3-25.1,16.6-30.4,30.3&#10;&#9;&#9;&#9;&#9;&#9;c-6.1,14.4-3.2,32.1,7.2,43.9c7.4,8.7,18.7,14.2,29.6,14.2c4.4,0,8.5-0.9,12.3-2.6c14.1-5.6,23-21,19.8-34.4&#10;&#9;&#9;&#9;&#9;&#9;c-2.3-11.4-13.2-20.7-24.2-20.7c-1.5,0-2.9,0.2-4.3,0.5c-6,1.2-11.4,5.2-14.3,10.8c-2.6,4.9-3,10.1-1.1,14.5&#10;&#9;&#9;&#9;&#9;&#9;c0.9,2.3,2.2,4.4,4,6.1c1.6,0.5,3.1,0.1,4-1.1c1.2-1.5,1.4-4,0.8-7c-0.4-1.9-0.4-3.7,0.1-5.4l0,0c0,0,0-0.1,0-0.1l0.1-0.3&#10;&#9;&#9;&#9;&#9;&#9;c0.4-1.1,1.1-2.1,2-3c0.2-0.2,0.4-0.5,0.7-0.7c1.4-1.4,4-2.4,6.5-2.4c1.9,0,4.7,0.5,7.4,2.9c2.7,2.3,4.3,6,4.2,9.8&#10;&#9;&#9;&#9;&#9;&#9;c-0.2,4.2-2.4,8.3-6.1,11.1c-2.7,2-6,3.1-9.4,3.1c-1.7,0-3.3-0.3-4.9-0.8c-5.3-1.7-9.7-5.9-11.9-11.2c-2.3-5-1.9-11.2,1-16.9&#10;&#9;&#9;&#9;&#9;&#9;c3.3-6.5,9.4-11.2,16.2-12.6c1.7-0.4,3.5-0.6,5.4-0.6c12.6,0,24.8,10.2,27.7,23.2c3.7,15.2-6.1,32.8-21.9,39.2&#10;&#9;&#9;&#9;&#9;&#9;C343.8,136.8,338.8,137.8,333.7,137.8z M346.9,38.8c-6.9,0-13.6,1.2-20,3.7c-14.6,5.4-26.8,17.3-32.5,31.8&#10;&#9;&#9;&#9;&#9;&#9;c-6.7,15.6-3.6,34.6,7.7,47.4c5.7,6.5,13.2,11.4,21.3,13.8c7.9,2.4,17,1.9,24.5-1.4c15.4-6.2,25-23.3,21.4-38.1&#10;&#9;&#9;&#9;&#9;&#9;c-2.8-12.6-14.6-22.5-26.8-22.5c-1.8,0-3.5,0.2-5.1,0.6c-6.6,1.4-12.4,5.9-15.6,12.1c-2.8,5.4-3.1,11.3-1,16.1&#10;&#9;&#9;&#9;&#9;&#9;c2,5.1,6.2,9.1,11.3,10.7c4.5,1.5,9.8,0.6,13.5-2.2c3.4-2.6,5.5-6.5,5.7-10.4c0.1-3.5-1.4-6.9-3.9-9c-2.5-2.2-5-2.7-6.7-2.7&#10;&#9;&#9;&#9;&#9;&#9;c-2.8,0-4.9,1.1-5.8,2.1c-0.3,0.2-0.5,0.5-0.7,0.7c-0.8,0.8-1.4,1.7-1.8,2.7l-0.1,0.2l0,0c-0.5,1.5-0.6,3.2-0.1,5&#10;&#9;&#9;&#9;&#9;&#9;c0.8,3.3,0.4,6.1-0.9,7.8c-1.2,1.5-3.1,2-5.1,1.4l-0.1,0l-0.1-0.1c-1.9-1.8-3.4-4.1-4.3-6.5c-2-4.6-1.5-10.1,1.2-15.2&#10;&#9;&#9;&#9;&#9;&#9;c3.1-5.9,8.7-10.1,15-11.3c1.4-0.3,3-0.5,4.5-0.5c11.6,0,22.7,9.4,25.2,21.4c3.3,13.8-5.8,29.7-20.3,35.4&#10;&#9;&#9;&#9;&#9;&#9;c-3.9,1.8-8.2,2.6-12.7,2.6c-11.1,0-22.7-5.6-30.3-14.5c-10.7-12.1-13.6-30.1-7.4-44.9c5.4-13.9,17-25.4,31-30.8&#10;&#9;&#9;&#9;&#9;&#9;c6.4-2.5,13.1-3.8,20-3.8c6.8,0,13.7,1.3,19.9,3.7c14.1,5.3,23.5,14.1,28.8,20.6c9.3,11.4,13.4,23.2,15,32.8&#10;&#9;&#9;&#9;&#9;&#9;C410,88,406.2,76,397,64.3c-5.3-6.7-14.7-15.8-28.9-21.4C361.6,40.2,354.2,38.8,346.9,38.8z" style="fill: rgb(0, 0, 0); stroke: rgb(0, 0, 0); stroke-width: 0; fill-opacity: 1;"/>
			</g>
		</g>
		<g>
			<g>
				<path class="st3" d="M263.2,61.7c7.2,5.8,9.9,13.6,10.7,19.9c0.6,3.1,0.9,7.1,0.6,12.2c-0.8,15.8-7.9,85.5-84.6,97.5&#10;&#9;&#9;&#9;&#9;&#9;c0,0,21.9-3.7,40.5-17.7c6.2-4.7,11.2-11.1,15.2-18.5c15.1-27.4-9.3-38.8,22.7-67.1c2.1-2.3,3-4.8,3.3-7.1&#10;&#9;&#9;&#9;&#9;&#9;C272,68.9,263.3,62,263.2,61.7z" style="fill: rgb(0, 0, 0); stroke: rgb(0, 0, 0); stroke-width: 0; fill-opacity: 1;"/>
				<path class="st4" d="M190.1,191.7l-0.1-0.9c0.2,0,22-3.8,40.3-17.6c5.7-4.3,10.7-10.4,15.1-18.3c6.2-11.2,5.7-19.7,5.2-27.8&#10;&#9;&#9;&#9;&#9;&#9;c-0.7-11.6-1.3-22.6,17.6-39.4c1.8-2,2.8-4.2,3.2-6.8c0.2-6.8-2.7-13.5-8.1-18.6c-0.3-0.3-0.4-0.3-0.4-0.5l-0.5-1.5l1.2,1&#10;&#9;&#9;&#9;&#9;&#9;c7.5,6.1,10.1,14.4,10.9,20.2c0.6,3.6,0.8,7.7,0.6,12.3C274,113.9,264.9,180.1,190.1,191.7z M270.7,72.2c1,2.8,1.5,5.8,1.4,8.9&#10;&#9;&#9;&#9;&#9;&#9;c-0.4,2.8-1.5,5.2-3.5,7.4c-18.6,16.5-18,27.2-17.3,38.6c0.5,8.3,1,16.9-5.3,28.3c-4.4,8-9.5,14.3-15.3,18.6&#10;&#9;&#9;&#9;&#9;&#9;c-8.3,6.3-17.4,10.5-24.8,13.2c59.5-17.8,67.2-75.1,68.2-93.4c0.2-4.5,0-8.5-0.6-12.1C273.1,78.9,272.3,75.6,270.7,72.2z" style="fill: rgb(0, 0, 0); stroke: rgb(0, 0, 0); stroke-width: 0; fill-opacity: 1;"/>
			</g>
		</g>
		<g>
			<g>
				<g>
					<path class="st3" d="M165.9,201.3c-4.2,0.1-6.9,0.5-9.6,0.7c-5.2,0.4-20.2,4.6-22,4.7c-8.3,0.3,24.6-6.2,22.2-6.4&#10;&#9;&#9;&#9;&#9;&#9;&#9;c41.1-6.6,81.4,21.9,90.9,32.1c3.6,3.8,6.9,7.8,8.6,10.5c4,6,9.5,15.9,6.4,26.6c-5.8,19.9-21.8,13.2-19.4,8.2&#10;&#9;&#9;&#9;&#9;&#9;&#9;c0.9-2,3.4-2.1,5.4,0.7c6.1-0.5,9.9-6.6,6.1-15.6c-2.6-6.3-14.2-9.3-19.7-9.9C198.3,248.8,216.9,199.2,165.9,201.3z" style="fill: rgb(0, 0, 0); stroke: rgb(0, 0, 0); stroke-width: 0; fill-opacity: 1;"/>
					<path class="st4" d="M249.3,283.5c-2.7,0-5.3-1.2-6.4-2.9c-0.6-1-0.7-2.1-0.3-3c0.5-1.1,1.4-1.7,2.5-1.7c1.2,0,2.4,0.8,3.5,2.1&#10;&#9;&#9;&#9;&#9;&#9;&#9;c2.5-0.3,4.5-1.5,5.7-3.6c1.7-2.9,1.7-6.9-0.2-11.4c-2.7-6.4-14.8-9.1-19.3-9.6c-16.6-1.9-21.9-12.8-27.5-24.5&#10;&#9;&#9;&#9;&#9;&#9;&#9;c-6.4-13.3-13-27.1-38.2-27.1c-1,0-2.1,0-3.1,0.1c-2.8,0.1-5,0.3-6.9,0.5c-0.9,0.1-1.8,0.2-2.7,0.2c-3.1,0.2-9.7,1.8-15,3.1&#10;&#9;&#9;&#9;&#9;&#9;&#9;c-4,1-6.3,1.5-7,1.6c-0.2,0-0.3,0-0.5,0c-0.6,0-1.3,0-1.4-0.6c-0.1-0.7,0.5-1.1,15.2-4.5c4.1-0.9,8.2-1.9,8.7-2.1l0.1,0.2&#10;&#9;&#9;&#9;&#9;&#9;&#9;l0-0.3c4.1-0.7,8.3-1,12.6-1c35.7,0,69.1,22.8,78.8,33.3c4,4.3,7.1,8.1,8.6,10.5c6.7,9.9,8.8,18.8,6.5,27&#10;&#9;&#9;&#9;&#9;&#9;&#9;C259.3,282.1,252.1,283.5,249.3,283.5z M245.1,276.8c-0.7,0-1.3,0.4-1.7,1.2c-0.4,0.8-0.1,1.6,0.2,2.1c0.8,1.2,2.8,2.5,5.6,2.5&#10;&#9;&#9;&#9;&#9;&#9;&#9;c2.7,0,9.3-1.3,12.7-13.1c2.3-7.9,0.2-16.5-6.3-26.2c-1.5-2.4-4.5-6.1-8.5-10.4c-9.6-10.3-42.7-33-78.1-33&#10;&#9;&#9;&#9;&#9;&#9;&#9;c-4.1,0-8.1,0.3-12.1,0.9c-0.5,0.3-2.4,0.8-9.1,2.3c-3.8,0.9-9,2.1-12.1,2.9c1.3-0.3,3.2-0.7,5.3-1.3c5.3-1.3,12-2.9,15.1-3.2&#10;&#9;&#9;&#9;&#9;&#9;&#9;c0.9-0.1,1.8-0.1,2.7-0.2c1.9-0.2,4.1-0.4,6.9-0.5c1.1,0,2.1-0.1,3.2-0.1c25.8,0,32.5,14.1,39.1,27.7&#10;&#9;&#9;&#9;&#9;&#9;&#9;c5.5,11.4,10.6,22.2,26.8,24c4.6,0.5,17.2,3.3,20.1,10.2c2,4.8,2.1,9.1,0.2,12.3c-1.4,2.3-3.8,3.8-6.7,4l-0.3,0l-0.2-0.2&#10;&#9;&#9;&#9;&#9;&#9;&#9;C247.1,277.5,246,276.8,245.1,276.8z" style="fill: rgb(0, 0, 0); stroke: rgb(0, 0, 0); stroke-width: 0; fill-opacity: 1;"/>
				</g>
			</g>
		</g>
		<g>
			<g>
				<g>
					<g>
						<path class="st3" d="M67,255.6c-0.1,0.2,7.3-13.4,20.6-16.4c13.1-3.6,26.4,0.7,27.3,1c2.1,0.5,5.3-0.1,6.1-2.9&#10;&#9;&#9;&#9;&#9;&#9;&#9;&#9;c1-3-1.4-5.6-4-6.2c-1.1-0.4-17.2-2.7-30.9,3.8C72.1,240.7,67,255.8,67,255.6z" style="fill: rgb(0, 0, 0); stroke: rgb(0, 0, 0); stroke-width: 0; fill-opacity: 1;"/>
						<path class="st4" d="M66.7,256.1l-0.2-0.4l0,0l0-0.1l0.1-0.3c0,0,0,0,0,0l0,0c1-2.6,6.6-15.6,19.3-21&#10;&#9;&#9;&#9;&#9;&#9;&#9;&#9;c7.9-3.7,16.5-4.5,22.4-4.5c4.7,0,8.2,0.5,8.9,0.7c1.6,0.4,3.1,1.5,3.9,2.9c0.7,1.2,0.8,2.6,0.4,3.9c-0.7,2.5-3.1,3.4-5.2,3.4&#10;&#9;&#9;&#9;&#9;&#9;&#9;&#9;c-0.5,0-1-0.1-1.5-0.2l-0.2-0.1c-5-1.5-10.6-2.3-15.7-2.3c-4,0-7.7,0.5-11.1,1.4c-12.7,2.9-20,15.6-20.3,16.1l-0.1,0.3&#10;&#9;&#9;&#9;&#9;&#9;&#9;&#9;L66.7,256.1z M108.3,230.8c-5.7,0-14.2,0.8-22,4.4c-8.3,3.5-13.5,10.4-16.3,15.3c3.4-4.2,9.4-9.9,17.5-11.8&#10;&#9;&#9;&#9;&#9;&#9;&#9;&#9;c3.5-1,7.3-1.4,11.3-1.4c5.2,0,10.9,0.8,15.9,2.3l0.2,0.1c0.4,0.1,0.8,0.1,1.2,0.1c0.8,0,3.6-0.2,4.3-2.7&#10;&#9;&#9;&#9;&#9;&#9;&#9;&#9;c0.4-1.1,0.3-2.2-0.3-3.2c-0.7-1.2-2-2.1-3.4-2.4C116.4,231.3,113.1,230.8,108.3,230.8z" style="fill: rgb(0, 0, 0); stroke: rgb(0, 0, 0); stroke-width: 0; fill-opacity: 1;"/>
					</g>
				</g>
			</g>
		</g>
		<g>
			<g>
				<g>
					<g>
						<path class="st3" d="M372.8,242.4c-0.2,0,16.8-0.9,25.5,9.6c9.1,10.1,9.7,25.4,9.8,26.2c0.5,2.1,2.5,4.7,5.3,4.1&#10;&#9;&#9;&#9;&#9;&#9;&#9;&#9;c3.2-0.5,4.4-3.8,3.7-6.4c-0.2-1.1-5.3-16.6-17.2-25.9C388.4,240.3,372.6,242.4,372.8,242.4z" style="fill: rgb(0, 0, 0); stroke: rgb(0, 0, 0); stroke-width: 0; fill-opacity: 1;"/>
						<path class="st4" d="M412.7,282.9L412.7,282.9c-2.5,0-4.5-2.3-5-4.6c0-0.1,0-0.3-0.1-0.7c-1.2-13.5-5.9-21.2-9.6-25.3&#10;&#9;&#9;&#9;&#9;&#9;&#9;&#9;c-7.5-9.1-21.4-9.5-24.1-9.5c-0.4,0-0.7,0-0.8,0c-0.2,0-0.2,0-0.2,0h-0.4l0-0.1l-0.1,0l0-0.4l0-0.4l0.4-0.1l0,0&#10;&#9;&#9;&#9;&#9;&#9;&#9;&#9;c0.1,0,0.2,0,0.3,0c1.3-0.1,2.6-0.1,3.4-0.1c5.4,0,15.7,1,23.9,8c12,9.4,17.2,24.8,17.4,26.2c0.4,1.6,0.1,3.5-0.8,4.8&#10;&#9;&#9;&#9;&#9;&#9;&#9;&#9;c-0.8,1.2-1.9,1.9-3.3,2.1C413.3,282.9,413,282.9,412.7,282.9z M386.4,243.9c4.3,1.4,8.9,3.8,12.3,7.8&#10;&#9;&#9;&#9;&#9;&#9;&#9;&#9;c3.8,4.2,8.6,12.1,9.9,25.9c0,0.3,0,0.5,0.1,0.6c0.4,1.5,1.8,3.8,4.1,3.8l0,0c0.2,0,0.5,0,0.7-0.1c1.1-0.2,2.1-0.7,2.7-1.7&#10;&#9;&#9;&#9;&#9;&#9;&#9;&#9;c0.8-1.1,1-2.7,0.7-4.1c-0.2-1.4-5.5-16.6-17-25.7C395.5,246.9,390.8,244.9,386.4,243.9z" style="fill: rgb(0, 0, 0); stroke: rgb(0, 0, 0); stroke-width: 0; fill-opacity: 1;"/>
					</g>
				</g>
			</g>
		</g>
		<g>
			<g>
				<g>
					<g>
						<path class="st3" d="M435.4,230.2c-0.2,0.1,31-4.1,46.2-16c15.8-13.2,15.1-31,15.3-32.1c0.7-2.6,3.2-5.8,6.6-5.2&#10;&#9;&#9;&#9;&#9;&#9;&#9;&#9;c3.8,0.4,5,4.3,4.1,7.4c-0.3,1.4-2,18.9-21.9,32C469.8,227.2,435.1,230.1,435.4,230.2z" style="fill: rgb(0, 0, 0); stroke: rgb(0, 0, 0); stroke-width: 0; fill-opacity: 1;"/>
						<path class="st4" d="M435.4,230.6L435.4,230.6l-0.5-0.1l0-0.4c0-0.3,0.2-0.4,0.4-0.4v0c0,0,0,0,0,0c0.1,0,0.2,0,0.4,0&#10;&#9;&#9;&#9;&#9;&#9;&#9;&#9;c1.4-0.2,31-4.5,45.6-15.9c6.4-5.3,14.2-15.1,15.1-30.9c0-0.5,0-0.8,0.1-0.9c0.9-3.1,3.6-6.1,7.1-5.6c1.6,0.2,2.9,0.9,3.7,2.2&#10;&#9;&#9;&#9;&#9;&#9;&#9;&#9;c1.1,1.6,1.4,3.8,0.8,5.8c0,0,0,0.1,0,0.3c-0.9,5.8-4.8,20.7-22,32c-13.2,9-39.2,12.7-49.8,13.8l-0.3,0&#10;&#9;&#9;&#9;&#9;&#9;&#9;&#9;C435.6,230.6,435.4,230.6,435.4,230.6z M502.8,177.2c-2.6,0-4.7,2.6-5.4,5c0,0.1,0,0.4,0,0.7c-0.9,16.2-8.9,26.1-15.4,31.6&#10;&#9;&#9;&#9;&#9;&#9;&#9;&#9;c-7.9,6.2-20,10.3-29.9,12.8c11.5-2.1,25.1-5.7,33.5-11.4c16.9-11.2,20.8-25.7,21.6-31.4c0-0.1,0-0.3,0.1-0.3&#10;&#9;&#9;&#9;&#9;&#9;&#9;&#9;c0.5-1.8,0.3-3.8-0.6-5.1c-0.7-1-1.8-1.7-3.1-1.8C503.3,177.2,503,177.2,502.8,177.2z" style="fill: rgb(0, 0, 0); stroke: rgb(0, 0, 0); stroke-width: 0; fill-opacity: 1;"/>
					</g>
				</g>
			</g>
		</g>
		<g>
			<g>
				<g>
					<g>
						<path class="st3" d="M69.2,254.6c0,0.1,5.4-6.6,13.4-8.3c7.8-2,15.9-0.1,16.5,0c1.3,0.2,2.5-0.6,2.9-1.8&#10;&#9;&#9;&#9;&#9;&#9;&#9;&#9;c0.3-1.3-0.7-2.6-2.2-2.8c-0.7-0.1-9.9-1-17.9,2.4C73.5,247.2,69.2,254.8,69.2,254.6z" style="fill: rgb(0, 0, 0); stroke: rgb(0, 0, 0); stroke-width: 0; fill-opacity: 1;"/>
						<path class="st4" d="M69.2,255h-0.5l0-1l0.3,0c3.3-4.9,7.9-8.6,12.7-10.4c5.1-2.1,10.7-2.6,14.4-2.6c2.1,0,3.5,0.1,3.8,0.2&#10;&#9;&#9;&#9;&#9;&#9;&#9;&#9;c0.9,0.1,1.7,0.6,2.2,1.4c0.4,0.6,0.5,1.3,0.3,2c-0.4,1.4-1.9,2.4-3.4,2.2c-0.1,0-0.1,0-0.3-0.1c-5.7-1.2-11.4-1.2-16,0&#10;&#9;&#9;&#9;&#9;&#9;&#9;&#9;c-6.2,1.3-10.8,5.5-13,8c-0.1,0.1-0.1,0.1-0.1,0.1l-0.1,0.2L69.2,255z M96.1,242c-3.6,0-9,0.4-14,2.5c-3,1.1-5.8,2.9-8.3,5.4&#10;&#9;&#9;&#9;&#9;&#9;&#9;&#9;c2.4-1.7,5.4-3.3,8.8-4c4.7-1.2,10.6-1.2,16.4,0l0.2,0c0.1,0,0.2,0,0.3,0c0.9,0,1.8-0.6,2-1.5c0.1-0.4,0-0.9-0.2-1.3&#10;&#9;&#9;&#9;&#9;&#9;&#9;&#9;c-0.3-0.5-0.9-0.9-1.6-1C99.6,242.1,98.3,242,96.1,242z" style="fill: rgb(0, 0, 0); stroke: rgb(0, 0, 0); stroke-width: 0; fill-opacity: 1;"/>
					</g>
				</g>
			</g>
		</g>
		<g>
			<g>
				<g>
					<g>
						<path class="st3" d="M355.8,270.7c-0.1-0.1,6.2,3.9,13.2,3.1c6.9-0.5,13-4.3,13.4-4.5c1-0.5,2.2-0.2,2.8,0.7&#10;&#9;&#9;&#9;&#9;&#9;&#9;&#9;c0.6,0.9,0.2,2.3-1,2.9c-0.5,0.3-7.8,3.5-15.3,2.9C361.3,275.6,355.7,270.6,355.8,270.7z" style="fill: rgb(0, 0, 0); stroke: rgb(0, 0, 0); stroke-width: 0; fill-opacity: 1;"/>
						<path class="st4" d="M370.7,276.4c-0.6,0-1.2,0-1.8-0.1c-4.5-0.1-9.2-1.9-13.2-5.1c-0.1-0.1-0.1-0.1-0.2-0.1l0.2-0.4l0-0.5&#10;&#9;&#9;&#9;&#9;&#9;&#9;&#9;l0.2,0l0.2,0.1c0,0,0.1,0,0.1,0.1c4.2,2.3,8.8,3.4,12.7,3c4.1-0.3,8.7-1.8,13.1-4.3l0.2-0.1c1.2-0.6,2.7-0.2,3.5,0.9&#10;&#9;&#9;&#9;&#9;&#9;&#9;&#9;c0.3,0.5,0.4,1.1,0.3,1.8c-0.2,0.7-0.7,1.4-1.5,1.8C383.8,273.7,377.5,276.4,370.7,276.4z M361.6,273.6c2.4,1.1,5,1.7,7.4,1.7&#10;&#9;&#9;&#9;&#9;&#9;&#9;&#9;c0.6,0,1.2,0.1,1.7,0.1c7.1,0,13.2-2.9,13.3-2.9c0.5-0.3,0.9-0.7,1-1.2c0.1-0.4,0-0.7-0.2-1c-0.5-0.7-1.5-0.9-2.2-0.6&#10;&#9;&#9;&#9;&#9;&#9;&#9;&#9;l-0.2,0.1c-4.5,2.6-9.2,4.2-13.4,4.5C366.8,274.6,364.2,274.3,361.6,273.6z" style="fill: rgb(0, 0, 0); stroke: rgb(0, 0, 0); stroke-width: 0; fill-opacity: 1;"/>
					</g>
				</g>
			</g>
		</g>
		<g>
			<g>
				<g>
					<g>
						<path class="st3" d="M152.6,201c5.7-1.7,10.8-3.8,16.3-3.2c0.4,0,1.7,0.7,2,0.5c0.7,0,1.3,0,2,0.1c6.6,0.2,37.2,1.7,58.3,10&#10;&#9;&#9;&#9;&#9;&#9;&#9;&#9;c21.3,7.9,36.5,20.2,46.9,34.8c10.6,14.5,14.9,24.8,16.4,28.1c2.7,7.5,0.8,15-5.6,16.1c-6.3,1.2-9.9-3.9-12.1-10&#10;&#9;&#9;&#9;&#9;&#9;&#9;&#9;c-0.6-1.5-3.2-12.1-10.5-25.5c-7.1-13.4-20.1-29.2-37.8-38.8c-17.5-9.9-38.4-13-53.8-13.1C164.7,199.8,156.9,200.5,152.6,201z&#10;&#9;&#9;&#9;&#9;&#9;&#9;&#9;" style="fill: rgb(0, 0, 0); stroke: rgb(0, 0, 0); stroke-width: 0; fill-opacity: 1;"/>
						<path class="st4" d="M287.1,288c-4.7,0-8.3-3.4-10.8-10.5c-0.1-0.3-0.3-0.9-0.6-1.8c-1.2-3.8-4-12.8-9.9-23.7&#10;&#9;&#9;&#9;&#9;&#9;&#9;&#9;c-4.1-7.7-15.9-26.8-37.6-38.6c-20.5-11.6-44.3-13-53.6-13c-0.5,0-1.1,0-1.6,0c-6.8,0-13.7,0.4-20.3,1.1l-0.2-0.9&#10;&#9;&#9;&#9;&#9;&#9;&#9;&#9;c1.1-0.3,2.2-0.7,3.2-1c3.9-1.2,7.6-2.4,11.4-2.4c0.6,0,1.2,0,1.8,0.1c0.2,0,0.5,0.1,0.9,0.3c0.3,0.1,0.6,0.2,0.8,0.3l0,0&#10;&#9;&#9;&#9;&#9;&#9;&#9;&#9;l2.2,0.1c8.5,0.3,38,2,58.5,10c20,7.4,35.9,19.2,47.1,35c9.9,13.5,14.2,23.2,16.1,27.4l0.4,0.8c1.7,4.8,1.6,9.5-0.2,12.8&#10;&#9;&#9;&#9;&#9;&#9;&#9;&#9;c-1.3,2.2-3.2,3.6-5.7,4C288.3,287.9,287.7,288,287.1,288z M173,199.4c0.5,0,1.1,0,1.6,0c9.4,0.1,33.4,1.4,54.1,13.2&#10;&#9;&#9;&#9;&#9;&#9;&#9;&#9;c21.9,11.9,33.9,31.2,38,39c6,11,8.8,20,10,23.9c0.3,0.8,0.5,1.5,0.6,1.7c2.7,7.5,6.5,10.7,11.6,9.8c2.2-0.4,4-1.6,5.1-3.6&#10;&#9;&#9;&#9;&#9;&#9;&#9;&#9;c1.7-3,1.8-7.5,0.2-12l-0.3-0.8c-1.8-4.1-6.1-13.8-16-27.2c-11.1-15.6-26.8-27.3-46.7-34.6c-20.4-8-49.7-9.6-58.2-10l-1.9-0.1&#10;&#9;&#9;&#9;&#9;&#9;&#9;&#9;c-0.3,0.1-0.9-0.1-1.4-0.3c-0.2-0.1-0.6-0.2-0.7-0.2c-0.6-0.1-1.1-0.1-1.7-0.1c-3.3,0-6.5,0.9-9.9,1.9&#10;&#9;&#9;&#9;&#9;&#9;&#9;&#9;C162.4,199.6,167.7,199.4,173,199.4z" style="fill: rgb(0, 0, 0); stroke: rgb(0, 0, 0); stroke-width: 0; fill-opacity: 1;"/>
					</g>
				</g>
			</g>
		</g>
		<g>
			<g>
				<g>
					<g>
						<path class="st3" d="M126,211.4c-0.1,0.2,16-6.8,33.1-5.3c17.4,0.9,31.3,12.2,32,13.1c2.2,1.8,4.4,2.7,5.4,1.8&#10;&#9;&#9;&#9;&#9;&#9;&#9;&#9;c1-0.8,0-3.5-2.4-5.5c-0.8-1.1-16.8-12.2-34.8-11.9C141.3,203.4,125.9,211.6,126,211.4z" style="fill: rgb(0, 0, 0); stroke: rgb(0, 0, 0); stroke-width: 0; fill-opacity: 1;"/>
						<path class="st4" d="M195.4,221.9c-1.2,0-2.9-0.8-4.7-2.2l-0.1-0.1c-0.7-1-14.4-12.1-31.6-13c-1.7-0.2-3.4-0.2-5.1-0.2&#10;&#9;&#9;&#9;&#9;&#9;&#9;&#9;c-5.9,0-15.4,0.9-27.1,5.2c-0.3,0.1-0.6,0.2-0.7,0.2l-0.2,0l-0.2,0l-0.1-0.1l-0.3-0.2l0.2-0.4l0.4,0.2l0,0l-0.1-0.4&#10;&#9;&#9;&#9;&#9;&#9;&#9;&#9;c0.1,0,0.3-0.1,0.6-0.3c13.5-6.1,24.6-7.4,31.4-7.4c0.4,0,0.8,0,1.2,0c0.3,0,0.6,0,0.9,0c17.3,0,32.9,10.4,34.3,12&#10;&#9;&#9;&#9;&#9;&#9;&#9;&#9;c1.8,1.4,2.9,3.3,3,4.8c0,0.6-0.2,1.1-0.5,1.4C196.4,221.7,196,221.9,195.4,221.9z M191.3,218.9c1.6,1.3,3.1,2,4.1,2&#10;&#9;&#9;&#9;&#9;&#9;&#9;&#9;c0.3,0,0.5-0.1,0.7-0.2c0.1-0.1,0.2-0.3,0.2-0.6c0-1-0.8-2.6-2.6-4.1l-0.1-0.1c-0.6-0.8-16.2-12-34.4-11.7c-0.4,0-0.8,0-1.2,0&#10;&#9;&#9;&#9;&#9;&#9;&#9;&#9;c-4.7,0-11.2,0.6-19.2,2.9c6.3-1.3,11.4-1.7,15.2-1.7c1.8,0,3.5,0.1,5.2,0.2C176.3,206.6,190.2,217.6,191.3,218.9z" style="fill: rgb(0, 0, 0); stroke: rgb(0, 0, 0); stroke-width: 0; fill-opacity: 1;"/>
					</g>
				</g>
			</g>
		</g>
		<g>
			<g>
				<g>
					<g>
						<path class="st3" d="M317.6,402c0.1-0.2-16,6.8-33.1,5.3c-17.4-0.9-31.3-12.2-32-13.1c-2.2-1.8-4.4-2.7-5.4-1.8&#10;&#9;&#9;&#9;&#9;&#9;&#9;&#9;c-1,0.8,0,3.5,2.4,5.5c0.8,1.1,16.8,12.2,34.8,11.9C302.2,409.9,317.6,401.7,317.6,402z" style="fill: rgb(0, 0, 0); stroke: rgb(0, 0, 0); stroke-width: 0; fill-opacity: 1;"/>
						<path class="st4" d="M285.6,410C285.6,410,285.6,410,285.6,410c-0.4,0-0.8,0-1.2,0c-0.3,0-0.6,0-0.9,0&#10;&#9;&#9;&#9;&#9;&#9;&#9;&#9;c-17.3,0-32.9-10.4-34.3-12c-1.8-1.4-2.9-3.3-3-4.8c0-0.6,0.2-1.1,0.5-1.4c1.1-0.9,3.5-0.2,6,1.8l0.1,0.1&#10;&#9;&#9;&#9;&#9;&#9;&#9;&#9;c0.7,1,14.4,12.1,31.6,13c1.7,0.2,3.4,0.2,5.1,0.2c0,0,0,0,0,0c5.9,0,15.4-0.9,27.1-5.2c0.4-0.1,0.6-0.2,0.7-0.2l0.2,0h0.2&#10;&#9;&#9;&#9;&#9;&#9;&#9;&#9;l0.1,0.1l0.3,0.2l-0.2,0.4l-0.4-0.2l0,0l0.1,0.4c-0.1,0-0.3,0.1-0.7,0.3C303.5,408.8,292.4,410,285.6,410z M284.3,409.1&#10;&#9;&#9;&#9;&#9;&#9;&#9;&#9;c0.4,0,0.8,0,1.2,0c4.7,0,11.2-0.6,19.2-2.9c-6.3,1.3-11.4,1.7-15.2,1.7c0,0,0,0,0,0c-1.8,0-3.5-0.1-5.2-0.2&#10;&#9;&#9;&#9;&#9;&#9;&#9;&#9;c-17.2-0.9-31.1-12-32.2-13.3c-1.6-1.3-3.1-2-4.1-2c-0.3,0-0.5,0.1-0.7,0.2c-0.1,0.1-0.2,0.3-0.2,0.6c0,1,0.8,2.6,2.6,4.1&#10;&#9;&#9;&#9;&#9;&#9;&#9;&#9;l0.1,0.1C250.5,398.2,266.1,409.4,284.3,409.1z" style="fill: rgb(0, 0, 0); stroke: rgb(0, 0, 0); stroke-width: 0; fill-opacity: 1;"/>
					</g>
				</g>
			</g>
		</g>
		<g>
			<path class="st3" d="M254.4,202.3c14.3,4.9,27.9,12.1,39.9,21.6c11.9,9.3,22.3,20.6,30.7,33.3c4.2,6.3,22.9,37.4,26.4,58.2&#10;&#9;&#9;&#9;&#9;c5.9,35.6-18.8,53.4-36.8,45.2c0,0-8.3-4.7-8.5-12.8c-0.2-6.9,3.5-11.5,8.2-9.7c4.6,1.8,3.3,7.9,0.7,9.9c-2.7,2-3.5,8.8,1.8,10.9&#10;&#9;&#9;&#9;&#9;c5.3,2.1,17.3-0.3,19.1-7.2c1.9-6.9-2.9-9.2,3-16.1c0,0-8-1.4-10.3-8.7c-3.2-10.1,2.2-14.2,2.2-14.2s3.4-7.9,2-17.6&#10;&#9;&#9;&#9;&#9;c-0.2-4.9-1.3-9.8-2.9-14.6c-0.1-0.2-0.1-0.3-0.2-0.5c-2.8-6.7-6.2-13.2-9.9-19.4c-7.5-12.5-17-23.9-28.1-33.4&#10;&#9;&#9;&#9;&#9;c-10.7-9.3-22.9-16.7-36.1-22.1c-30.3-10.3-81.4-19.1-134.9,9.6l15.1-14.3C136.1,200.1,190,176.1,254.4,202.3z" style="fill: rgb(0, 0, 0); stroke: rgb(0, 0, 0); stroke-width: 0; fill-opacity: 1;"/>
			<path class="st4" d="M323.6,363c-3.2,0-6.3-0.7-9.2-2c-0.4-0.2-8.6-4.9-8.8-13.2c-0.1-3.7,0.9-6.9,2.7-8.8&#10;&#9;&#9;&#9;&#9;c1.6-1.7,3.8-2.2,6.1-1.3c1.9,0.7,3,2.2,3.3,4.2c0.3,2.4-0.8,5.2-2.5,6.5c-1.3,1-2.1,3.4-1.8,5.6c0.2,1.2,0.9,3.5,3.6,4.6&#10;&#9;&#9;&#9;&#9;c1.2,0.5,2.7,0.7,4.4,0.7c5.8,0,12.8-2.7,14.1-7.6c0.7-2.6,0.4-4.5,0.2-6.3c-0.4-2.7-0.8-5.4,2.4-9.4c-2.1-0.6-8-2.7-9.9-8.8&#10;&#9;&#9;&#9;&#9;c-3.1-9.7,1.5-14,2.3-14.7c0.4-1,3.2-8.4,2-17.3c-0.2-4.6-1.2-9.5-2.9-14.5l-0.2-0.5c-2.7-6.5-6-13-9.9-19.4&#10;&#9;&#9;&#9;&#9;c-7.7-12.7-17.1-23.9-28-33.3c-10.3-9-22.4-16.4-35.9-22.1c-19.1-6.5-38.6-9.8-57.9-9.8c-26.9,0-52.7,6.5-76.6,19.3l-0.5-0.8&#10;&#9;&#9;&#9;&#9;l15.3-14.4c0.9-0.4,23.4-10.3,56.6-10.3c21.4,0,42.4,4.1,62.4,12.2c14.9,5.1,28.3,12.4,40,21.7c11.8,9.2,22.2,20.5,30.8,33.4&#10;&#9;&#9;&#9;&#9;c4.4,6.6,23,37.6,26.4,58.4c2.5,15.2-0.3,28.6-8.1,37.8C338.4,359.4,331,363,323.6,363C323.6,363,323.6,363,323.6,363z&#10;&#9;&#9;&#9;&#9; M312.1,338.2c-1.2,0-2.3,0.5-3.2,1.4c-1.7,1.7-2.6,4.7-2.5,8.2c0.2,7.8,8.2,12.4,8.3,12.4c2.8,1.2,5.7,1.9,8.8,1.9c0,0,0,0,0,0&#10;&#9;&#9;&#9;&#9;c7.2,0,14.3-3.5,19.5-9.6c7.6-8.9,10.3-22.1,7.8-37c-3.4-20.6-21.9-51.5-26.3-58c-8.6-12.8-18.9-24-30.6-33.2&#10;&#9;&#9;&#9;&#9;c-11.6-9.2-24.9-16.4-39.7-21.5c-19.9-8.1-40.8-12.2-62.1-12.2c-32.4,0-54.5,9.4-56.1,10.1l-12.6,11.9&#10;&#9;&#9;&#9;&#9;c23.2-11.9,48.1-17.9,74.1-17.9c19.4,0,39,3.3,58.2,9.9c13.7,5.7,25.9,13.1,36.2,22.2c11,9.4,20.4,20.7,28.2,33.5&#10;&#9;&#9;&#9;&#9;c3.9,6.4,7.2,13,10,19.5l0.2,0.5c1.7,5.2,2.7,10.1,2.9,14.8c1.4,9.7-1.9,17.5-2.1,17.8l0,0.1l-0.1,0.1c-0.2,0.2-5.1,4.1-2,13.7&#10;&#9;&#9;&#9;&#9;c2.2,7,9.9,8.4,10,8.4l0.8,0.1l-0.5,0.6c-3.5,4-3.1,6.4-2.7,9.2c0.3,1.8,0.6,3.9-0.2,6.7c-1.5,5.4-8.8,8.3-15,8.3&#10;&#9;&#9;&#9;&#9;c-1.8,0-3.5-0.3-4.7-0.8c-2.3-0.9-3.8-2.8-4.2-5.3c-0.3-2.5,0.6-5.2,2.2-6.4c1.5-1.1,2.4-3.6,2.2-5.6c-0.2-1.1-0.7-2.7-2.7-3.5&#10;&#9;&#9;&#9;&#9;C313.3,338.3,312.7,338.2,312.1,338.2z" style="fill: rgb(0, 0, 0); stroke: rgb(0, 0, 0); stroke-width: 0; fill-opacity: 1;"/>
		</g>
		<g>
			<g>
				<path class="st3" d="M305.5,184.6c-4.3,5.7-10.4,9.7-19.1,12c-8.8,3-17.8,2.6-26.6,2c-11.3-1-22.3-3.8-32.9-7.2&#10;&#9;&#9;&#9;&#9;&#9;c10.9,2.7,21.9,4.8,33.1,5.1c9.7,0.3,20.4-0.6,28.5-4.9c6.5-5,5.6-11.9,5.6-11.9s-1.7-2.8,1.5-6.8c2.3-2.9,6.1-2.1,6.1-2.1&#10;&#9;&#9;&#9;&#9;&#9;c-1.5-4.1,1.1-4.3,1.4-7.7c0.3-3.4-4.6-6.5-7.4-6.5c-2.8,0-3.6,3.2-2.7,4.6c0.9,1.3,0.4,4.3-2,4.3c-2.4,0-2.8-2.5-2-5.7&#10;&#9;&#9;&#9;&#9;&#9;c1-4.3,6.8-4.3,6.8-4.3C305.1,154.9,315.5,171.1,305.5,184.6z" style="fill: rgb(0, 0, 0); stroke: rgb(0, 0, 0); stroke-width: 0; fill-opacity: 1;"/>
				<path class="st4" d="M269.5,199.5c-3.4,0-6.7-0.2-9.8-0.4c-9.9-0.9-20.4-3.2-33-7.2l0.3-0.9c12.8,3.2,23.3,4.9,33,5.1&#10;&#9;&#9;&#9;&#9;&#9;c1,0,2,0,3,0c10.6,0,19.1-1.6,25.2-4.9c5.8-4.5,5.4-10.5,5.4-11.3c-0.3-0.6-1.5-3.4,1.5-7.2c1.7-2.1,4.1-2.4,5.4-2.4&#10;&#9;&#9;&#9;&#9;&#9;c0.2,0,0.3,0,0.5,0c-0.6-2.2,0-3.3,0.6-4.5c0.4-0.8,0.9-1.5,1-2.8c0.1-1.3-0.6-2.4-1.3-3.2c-1.4-1.6-3.9-2.8-5.6-2.8&#10;&#9;&#9;&#9;&#9;&#9;c-1.2,0-1.9,0.7-2.2,1.3c-0.5,0.9-0.5,2-0.1,2.6c0.6,1,0.6,2.5,0,3.6c-0.5,0.9-1.4,1.4-2.4,1.5c0,0,0,0,0,0&#10;&#9;&#9;&#9;&#9;&#9;c-0.9,0-1.6-0.3-2.1-0.9c-1-1.3-0.8-3.7-0.3-5.4c1.1-4.6,7-4.7,7.2-4.7c0.1,0,0.3,0,0.5,0c4.5,0,9.1,3.4,11.8,8.8&#10;&#9;&#9;&#9;&#9;&#9;c3.5,6.9,2.7,14.8-2.1,21.2c-4.4,6-10.8,9.9-19.4,12.2C281.5,198.7,276.1,199.5,269.5,199.5z M241.4,195&#10;&#9;&#9;&#9;&#9;&#9;c6.6,1.6,12.6,2.6,18.4,3.1c3,0.2,6.3,0.4,9.7,0.4c6.5,0,11.9-0.8,16.7-2.4c8.4-2.2,14.6-6,18.9-11.8c4.5-6.1,5.3-13.6,2-20.2&#10;&#9;&#9;&#9;&#9;&#9;c-2.6-5.2-7.1-8.5-11.4-8.2c-0.1,0-5.4,0.1-6.3,4c-0.5,2.2-0.5,3.8,0.2,4.6c0.3,0.4,0.7,0.6,1.3,0.6c1,0,1.4-0.5,1.7-1&#10;&#9;&#9;&#9;&#9;&#9;c0.4-0.8,0.4-2,0-2.6c-0.6-0.9-0.5-2.4,0.1-3.5c0.6-1.1,1.7-1.8,3-1.8c2,0,4.7,1.4,6.3,3.1c1.1,1.2,1.7,2.6,1.5,3.9&#10;&#9;&#9;&#9;&#9;&#9;c-0.1,1.4-0.6,2.3-1.1,3.1c-0.7,1.2-1.2,2.1-0.3,4.4l0.3,0.8l-0.8-0.2c0,0-0.4-0.1-1-0.1c-1.4,0-3.3,0.4-4.6,2.1&#10;&#9;&#9;&#9;&#9;&#9;c-2.9,3.7-1.4,6.2-1.4,6.2l0.1,0.2c0,0.3,0.9,7.2-5.8,12.3c-6.3,3.4-14.9,5.1-25.7,5.1c-1,0-2,0-3.1,0&#10;&#9;&#9;&#9;&#9;&#9;C254.1,196.8,248,196.2,241.4,195z" style="fill: rgb(0, 0, 0); stroke: rgb(0, 0, 0); stroke-width: 0; fill-opacity: 1;"/>
			</g>
		</g>
		<g>
			<g>
				<path class="st3" d="M380,304.3c3,3.3,5.1,4.9,9.1,7.4c7.7,3,13.1-1.3,13.1-1.3s1.5-2.9,6.6-2.2c3.7,0.5,5,4.2,5,4.2&#10;&#9;&#9;&#9;&#9;&#9;c2.8-3.4,4.3-1.3,7.4-2.8c3.1-1.5,3.3-7.3,1.8-9.7c-1.4-2.4-4.6-1.4-5.3,0c-0.7,1.4-3.5,2.5-4.7,0.5c-1.3-2,0.7-3.7,3.9-4.7&#10;&#9;&#9;&#9;&#9;&#9;c4.2-1.3,7.2,3.6,7.2,3.6c5.3,7.9-3.3,25.1-20,23.4c-7.1-0.7-13.7-4-20.1-10.3c-9.4-9.2-22.1-32.5-22.9-34.7&#10;&#9;&#9;&#9;&#9;&#9;C365.1,283,369.3,292.9,380,304.3z" style="fill: rgb(0, 0, 0); stroke: rgb(0, 0, 0); stroke-width: 0; fill-opacity: 1;"/>
				<path class="st4" d="M406.2,323.4c-0.8,0-1.6,0-2.3-0.1c-7.4-0.8-14-4.2-20.4-10.4c-9.5-9.4-22.3-32.9-23.1-34.8l0.8-0.5&#10;&#9;&#9;&#9;&#9;&#9;c1.5,1.8,3,4.3,4.8,7.1c3.3,5.3,7.4,11.9,14.3,19.3c2.8,3.1,4.8,4.7,9,7.3c1.7,0.7,3.5,1,5.2,1c4,0,6.8-1.9,7.2-2.2&#10;&#9;&#9;&#9;&#9;&#9;c0.3-0.5,1.7-2.5,5.4-2.5c0.5,0,1,0,1.6,0.1c2.9,0.4,4.4,2.6,5,3.8c1.6-1.7,2.8-1.7,4.2-1.7c0.9,0,1.8-0.1,2.9-0.6&#10;&#9;&#9;&#9;&#9;&#9;c1.2-0.6,1.8-1.8,2.1-2.8c0.6-2.1,0.4-4.8-0.4-6.2c-0.6-1-1.5-1.2-2.1-1.2c-1.1,0-2.1,0.6-2.4,1.2c-0.5,1.1-1.9,1.9-3.2,1.9&#10;&#9;&#9;&#9;&#9;&#9;c-1,0-1.8-0.5-2.4-1.3c-0.5-0.8-0.6-1.5-0.3-2.3c0.6-1.6,2.8-2.5,4.5-3.1c0.5-0.2,1-0.2,1.6-0.2c3.7,0,6,3.9,6.1,4&#10;&#9;&#9;&#9;&#9;&#9;c2.4,3.5,2.2,8.7-0.4,13.6C420.4,319.5,413.8,323.4,406.2,323.4C406.2,323.4,406.2,323.4,406.2,323.4z M366.5,287.2&#10;&#9;&#9;&#9;&#9;&#9;c4.7,8.1,11.8,19.2,17.7,25c6.2,6.1,12.6,9.4,19.8,10.1c0.8,0.1,1.5,0.1,2.2,0.1c0,0,0,0,0,0c7.2,0,13.5-3.8,16.9-10.1&#10;&#9;&#9;&#9;&#9;&#9;c2.4-4.6,2.6-9.6,0.5-12.7c0-0.1-2.2-3.6-5.4-3.6c-0.4,0-0.9,0.1-1.3,0.2c-2.1,0.7-3.5,1.6-3.9,2.5c-0.2,0.5-0.1,0.9,0.2,1.5&#10;&#9;&#9;&#9;&#9;&#9;c0.4,0.6,0.9,0.9,1.6,0.9c1,0,2-0.7,2.4-1.4c0.5-1,1.9-1.7,3.2-1.7c1.2,0,2.3,0.6,2.9,1.6c1,1.6,1.2,4.6,0.5,7&#10;&#9;&#9;&#9;&#9;&#9;c-0.5,1.6-1.4,2.8-2.6,3.3c-1.3,0.6-2.3,0.6-3.3,0.7c-1.3,0-2.4,0.1-3.9,2l-0.5,0.6l-0.3-0.8c0,0-1.3-3.4-4.6-3.9&#10;&#9;&#9;&#9;&#9;&#9;c-0.5-0.1-1-0.1-1.4-0.1c-3.5,0-4.6,2-4.7,2.1l-0.1,0.1c-0.1,0.1-3.1,2.5-7.9,2.5c0,0,0,0,0,0c-1.9,0-3.8-0.4-5.7-1.1&#10;&#9;&#9;&#9;&#9;&#9;c-4.4-2.7-6.5-4.3-9.3-7.5C373.5,298.1,369.6,292.2,366.5,287.2z" style="fill: rgb(0, 0, 0); stroke: rgb(0, 0, 0); stroke-width: 0; fill-opacity: 1;"/>
			</g>
		</g>
		<g>
			<g>
				<path class="st3" d="M470.1,209c-5.9,8-14.5,13.5-26.5,16.6c-12.9,3.5-23,3.6-36.6,3.3c-16.2-0.4-33.7-2-50-4.6&#10;&#9;&#9;&#9;&#9;&#9;c17.9,1.3,33.1,2.2,49.2,2.3c13.4,0,30.6-1.7,40.1-7.9c9.1-7,7.8-16.4,7.8-16.4s-2.4-3.9,2-9.4c3.2-4,8.5-3,8.5-3&#10;&#9;&#9;&#9;&#9;&#9;c-2.1-5.7,1.5-6,2-10.7c0.5-4.7-6.4-9.1-10.2-9c-3.8,0-4.9,4.5-3.8,6.4c1.2,1.9,0.6,5.9-2.8,6c-3.3,0.1-3.9-3.5-2.8-8&#10;&#9;&#9;&#9;&#9;&#9;c1.4-5.9,9.4-6,9.4-6C469.6,167.8,484,190.3,470.1,209z" style="fill: rgb(0, 0, 0); stroke: rgb(0, 0, 0); stroke-width: 0; fill-opacity: 1;"/>
				<path class="st4" d="M415,229.5c-2.3,0-4.7,0-8-0.1c-16-0.4-33.3-2-50.1-4.6l0.1-0.9c18.6,1.4,33.4,2.2,49.2,2.3h0.2&#10;&#9;&#9;&#9;&#9;&#9;c8.3,0,28.8-0.8,39.7-7.8c8.3-6.4,7.6-15,7.6-15.9c-0.4-0.7-2.1-4.5,2.1-9.8c2.3-2.8,5.6-3.3,7.3-3.3c0.3,0,0.6,0,0.9,0&#10;&#9;&#9;&#9;&#9;&#9;c-1-3.2-0.1-4.7,0.8-6.3c0.6-1.1,1.2-2.2,1.4-3.9c0.2-1.9-0.9-3.5-1.8-4.5c-2-2.2-5.5-4-7.8-4c-1.9,0-2.8,1.2-3.2,1.9&#10;&#9;&#9;&#9;&#9;&#9;c-0.7,1.2-0.7,2.8-0.2,3.7c0.8,1.3,0.8,3.3,0.1,4.8c-0.7,1.2-1.8,1.9-3.2,1.9c0,0,0,0,0,0c-1.3,0-2.2-0.4-2.8-1.2&#10;&#9;&#9;&#9;&#9;&#9;c-1.4-1.8-1-5-0.4-7.3c1.5-6.2,9.7-6.3,9.8-6.3c0.2,0,0.4,0,0.7,0c6.2,0,12.5,4.7,16.2,12c4.8,9.5,3.7,20.4-2.8,29.2&#10;&#9;&#9;&#9;&#9;&#9;c-6.1,8.2-14.9,13.7-26.8,16.8C433.2,228.9,424.6,229.5,415,229.5z M370.5,225.7c12.4,1.5,24.8,2.5,36.6,2.7&#10;&#9;&#9;&#9;&#9;&#9;c3.3,0.1,5.7,0.1,8,0.1c9.5,0,18-0.6,28.5-3.4c11.7-3,20.3-8.4,26.2-16.5c6.3-8.5,7.4-19,2.8-28.2c-3.6-7.3-10-11.9-16-11.5&#10;&#9;&#9;&#9;&#9;&#9;c-0.1,0-7.6,0.1-8.9,5.6c-0.7,3.1-0.6,5.4,0.3,6.5c0.5,0.6,1.1,0.9,2,0.9c1.4,0,2.1-0.8,2.5-1.4c0.6-1.2,0.6-2.8,0-3.8&#10;&#9;&#9;&#9;&#9;&#9;c-0.7-1.2-0.7-3.2,0.2-4.7c0.8-1.5,2.3-2.4,4-2.4c2.7,0,6.4,1.8,8.6,4.3c1.5,1.7,2.3,3.5,2.1,5.2c-0.2,1.9-0.9,3.2-1.5,4.3&#10;&#9;&#9;&#9;&#9;&#9;c-0.9,1.7-1.7,3-0.5,6.2l0.3,0.8l-0.8-0.2c0,0-0.6-0.1-1.5-0.1c-1.9,0-4.7,0.5-6.6,2.9c-4.1,5.2-2.1,8.7-2,8.9l0.1,0.2&#10;&#9;&#9;&#9;&#9;&#9;c0,0.1,1.3,9.8-7.9,16.9c-10.8,6.9-29.8,8-40.2,8h-0.2C394.4,227,383.2,226.5,370.5,225.7z" style="fill: rgb(0, 0, 0); stroke: rgb(0, 0, 0); stroke-width: 0; fill-opacity: 1;"/>
			</g>
		</g>
		<g>
			<path class="st3" d="M403,82.3c10.5,28.9,1.6,52-13.4,72.4c-15.5,21.4-38.8,34.4-62.5,43.3c23.1-10.3,45.3-23.9,58.7-45&#10;&#9;&#9;&#9;&#9;c9.2-14.1,14.2-29.1,12.7-45.8c-1.8-12.6-8.9-14.9-8.9-14.9s-4.3-1.6-5.2-7.6c-0.7-4.9,3.5-7.9,3.5-7.9c-4.8-2.1-5.8-8.3-6.1-8.8&#10;&#9;&#9;&#9;&#9;c-0.6-1-1.4-2-2.3-2.8c-0.2-0.2-0.5-0.3-0.7-0.5C388.2,63.8,399.3,69.2,403,82.3z" style="fill: rgb(0, 0, 0); stroke: rgb(0, 0, 0); stroke-width: 0; fill-opacity: 1;"/>
			<path class="st4" d="M327.3,198.5l-0.4-0.9c28.6-12.7,47.1-27,58.4-44.9c9.9-15.2,14-30.1,12.6-45.5c-1.8-12.1-8.5-14.5-8.6-14.5&#10;&#9;&#9;&#9;&#9;c-0.2-0.1-4.6-1.8-5.5-7.9c-0.6-4,1.9-6.8,3.1-7.8c-3.7-2-5-6.4-5.5-8.1c-0.1-0.3-0.1-0.5-0.2-0.5c-0.5-0.8-1.3-1.9-2.2-2.7&#10;&#9;&#9;&#9;&#9;c-0.2-0.2-0.4-0.3-0.7-0.5l-1.1-0.7l1.3-0.1c0.7-0.1,1.4-0.1,2-0.1c8.1,0,18.9,4.7,22.7,18c11.8,32.6-2,57.2-13.4,72.8&#10;&#9;&#9;&#9;&#9;C376.6,173.5,356.1,187.7,327.3,198.5z M380.1,65.1c0.9,0.8,1.6,1.9,2.1,2.7c0.1,0.1,0.1,0.3,0.3,0.8c0.5,1.7,1.8,6.2,5.6,7.9&#10;&#9;&#9;&#9;&#9;l0.8,0.3l-0.7,0.5c0,0-4,2.9-3.3,7.4c0.8,5.6,4.7,7.1,4.9,7.2c0.3,0.1,7.3,2.6,9.2,15.3c1.4,15.7-2.8,30.8-12.8,46.1&#10;&#9;&#9;&#9;&#9;c-9.3,14.7-23.4,26.9-43.8,37.9c20.6-9.7,36-21.8,46.8-36.6c11.3-15.5,25-39.8,13.3-72c-3.6-12.8-14-17.4-21.8-17.4&#10;&#9;&#9;&#9;&#9;C380.6,65.1,380.3,65.1,380.1,65.1z" style="fill: rgb(0, 0, 0); stroke: rgb(0, 0, 0); stroke-width: 0; fill-opacity: 1;"/>
		</g>
		<g>
			<path class="st3" d="M486.6,97.6c0,0-0.2,7.1-5.5,10c-4.5,2.5-8.7,1.6-9.1-2c-0.4-3.7,4-4.9,6.2-3.8c2.2,1.1,7-0.7,6.5-5&#10;&#9;&#9;&#9;&#9;c-0.5-4.2-6.1-11.2-11.3-10.1c-5.1,1.1-5,5.1-11.6,3.5c0,0,1.8,5.7-2.2,9.8c-5.5,5.6-10.1,3.4-10.1,3.4s-6.2,0.5-12,4.5&#10;&#9;&#9;&#9;&#9;c-20,18.9-27.7,53.7-54.4,71.4c-28.5,23.2-67.3,33.3-102.6,25.1c35.7,6.7,73.1-5.1,99.6-28.7c13.4-11.7,24.2-25.9,30.7-42.4&#10;&#9;&#9;&#9;&#9;c5.3-11.2,11.6-22.3,20.7-31.4c4.1-5,8.4-9.7,12.6-12.9C465.7,72.9,485.8,83,486.6,97.6z" style="fill: rgb(0, 0, 0); stroke: rgb(0, 0, 0); stroke-width: 0; fill-opacity: 1;"/>
			<path class="st4" d="M305.9,207.7c-8.6,0-17.1-1-25.2-2.9l0.2-0.9c6.6,1.2,13.3,1.9,20.1,1.9c28.6,0,57.4-11.1,79.1-30.4&#10;&#9;&#9;&#9;&#9;c14.1-12.4,24.4-26.6,30.6-42.2c4.5-9.5,10.9-21.7,20.8-31.6c4.6-5.7,8.9-10.1,12.7-12.9c7.2-5.4,14.8-8.3,22-8.3&#10;&#9;&#9;&#9;&#9;c11.4,0,20.4,7.4,21,17.3c0,0.3-0.3,7.4-5.7,10.4c-1.7,1-3.5,1.5-5.1,1.5c-2.7,0-4.5-1.5-4.7-3.9c-0.1-1.2,0.2-2.3,1-3.1&#10;&#9;&#9;&#9;&#9;c0.9-1,2.4-1.6,4-1.6c0.7,0,1.4,0.1,2,0.4c0.3,0.2,0.8,0.3,1.3,0.3c1.3,0,2.8-0.6,3.6-1.6c0.8-0.9,1.1-1.9,1-3.1&#10;&#9;&#9;&#9;&#9;c-0.4-3.7-5.1-9.8-9.7-9.8c-0.3,0-0.7,0-1,0.1c-1.9,0.4-3.1,1.2-4.2,2c-1.3,1-2.6,1.9-4.9,1.9c-0.6,0-1.3-0.1-2-0.2&#10;&#9;&#9;&#9;&#9;c0.4,1.7,0.8,6.1-2.5,9.5c-3.2,3.3-6.2,4-8.1,4c-1.2,0-2.1-0.3-2.4-0.4c-0.8,0.1-6.4,0.8-11.7,4.4c-8.4,8-14.6,18.8-21.2,30.2&#10;&#9;&#9;&#9;&#9;c-8.8,15.2-17.8,31-33.2,41.2C361.9,197.5,333.5,207.7,305.9,207.7C305.9,207.7,305.9,207.7,305.9,207.7z M301.8,206.7&#10;&#9;&#9;&#9;&#9;c1.4,0,2.7,0.1,4.1,0.1c0,0,0,0,0,0c27.4,0,55.6-10.1,77.2-27.8c15.2-10.1,24.2-25.8,32.9-40.9c6.6-11.5,12.8-22.3,21.4-30.4&#10;&#9;&#9;&#9;&#9;c5.9-4.1,12-4.6,12.3-4.7l0.1,0l0.1,0.1c0,0,4.3,2,9.6-3.3c3.8-3.8,2.1-9.2,2.1-9.3l-0.3-0.8l0.8,0.2c1,0.2,1.8,0.3,2.5,0.3&#10;&#9;&#9;&#9;&#9;c2,0,3.1-0.8,4.3-1.7c1.1-0.8,2.4-1.7,4.5-2.2c0.4-0.1,0.8-0.1,1.2-0.1c5.1,0,10.2,6.5,10.6,10.6c0.2,1.5-0.3,2.8-1.2,3.9&#10;&#9;&#9;&#9;&#9;c-1.1,1.2-2.7,1.9-4.3,1.9c-0.6,0-1.2-0.1-1.7-0.3c-0.4-0.2-1-0.3-1.6-0.3c-1.3,0-2.5,0.5-3.3,1.3c-0.6,0.6-0.8,1.4-0.7,2.4&#10;&#9;&#9;&#9;&#9;c0.2,1.9,1.6,3,3.8,3c1.4,0,3-0.5,4.6-1.4c5-2.8,5.2-9.5,5.2-9.6c-0.5-9.3-9.2-16.3-20.1-16.3c-7,0-14.4,2.8-21.5,8.1&#10;&#9;&#9;&#9;&#9;c-3.7,2.8-8,7.1-12.5,12.8c-9.9,9.8-16.2,21.9-20.7,31.3c-6.3,15.8-16.7,30.1-30.9,42.6C359,195.3,330.3,206.5,301.8,206.7z" style="fill: rgb(0, 0, 0); stroke: rgb(0, 0, 0); stroke-width: 0; fill-opacity: 1;"/>
		</g>
		<g>
			<g>
				<path class="st3" d="M437,265.6c-8.6-11.8-30.3-20.5-45.8-21.9c9.8,1.6,15.7,3.4,21.3,6.3c18.2,9.6,13.7,18.3,13.7,18.3&#10;&#9;&#9;&#9;&#9;&#9;s-2,2.5,0.6,6.6c1.9,3,5.6,2.7,5.6,2.7c-1.7,3.3,0.6,7.3,0.7,7.7c0.1,0.9,0.2,1.8,0,2.6c0,0.2-0.1,0.4-0.2,0.6&#10;&#9;&#9;&#9;&#9;&#9;C439.3,284.3,443.7,274.8,437,265.6z" style="fill: rgb(0, 0, 0); stroke: rgb(0, 0, 0); stroke-width: 0; fill-opacity: 1;"/>
				<path class="st4" d="M432.1,289.8l0.4-1.3c0.1-0.2,0.1-0.4,0.1-0.6c0.2-0.8,0.1-1.8,0-2.5c0,0-0.1-0.2-0.1-0.3&#10;&#9;&#9;&#9;&#9;&#9;c-0.5-1.2-1.8-4.2-0.8-7c-1.2-0.1-3.8-0.6-5.3-3c-2.5-4.1-0.9-6.7-0.6-7.1c0.2-0.5,3.5-8.6-13.5-17.6&#10;&#9;&#9;&#9;&#9;&#9;c-5.5-2.9-11.4-4.7-21.2-6.3l0.1-0.9c15.5,1.4,37.5,10.2,46.1,22.1c2.8,3.9,3.9,8.2,3.2,12.4c-0.8,4.4-3.5,8.6-7.3,11.2&#10;&#9;&#9;&#9;&#9;&#9;L432.1,289.8z M433.3,277.2l-0.4,0.7c-1.3,2.6,0,5.7,0.5,6.9c0.1,0.3,0.2,0.5,0.2,0.6c0.1,0.6,0.2,1.4,0.1,2.2&#10;&#9;&#9;&#9;&#9;&#9;c3.1-2.5,5.3-6.1,6-9.9c0.7-4-0.4-8.1-3-11.7c-4.8-6.6-14-12.3-23.8-16.2c18.3,9.7,14,18.5,13.9,18.9c-0.1,0.2-1.8,2.4,0.6,6.1&#10;&#9;&#9;&#9;&#9;&#9;c1.7,2.7,5.1,2.5,5.1,2.5L433.3,277.2z" style="fill: rgb(0, 0, 0); stroke: rgb(0, 0, 0); stroke-width: 0; fill-opacity: 1;"/>
			</g>
		</g>
		<g>
			<g>
				<path class="st3" d="M507.7,214c15.4-10.8,27.2-24.9,26.6-47.8c0.4-10-6-16.3-12.8-17.9c0.1,0.2,0.3,0.3,0.4,0.5&#10;&#9;&#9;&#9;&#9;&#9;c0.5,0.8,0.8,1.7,1,2.5c0.1,0.4-0.7,5.1,2.2,7.6c0,0-3.7,1.1-4.3,4.7c-0.8,4.4,1.9,6.5,1.9,6.5s4.4,3.3,2.7,12.6&#10;&#9;&#9;&#9;&#9;&#9;c-2.9,12.1-10,21.4-19.8,29.1c-14.4,11.6-33.2,15.9-51.9,17.6C472.3,228.9,491.8,225.3,507.7,214z" style="fill: rgb(0, 0, 0); stroke: rgb(0, 0, 0); stroke-width: 0; fill-opacity: 1;"/>
				<path class="st4" d="M453.6,230l-0.1-0.9c23-2.1,39.4-7.7,51.6-17.5c10.5-8.3,17-17.7,19.6-28.9c1.6-8.8-2.5-12.1-2.5-12.1&#10;&#9;&#9;&#9;&#9;&#9;c-0.1-0.1-2.9-2.4-2-7c0.5-2.9,2.8-4.2,4-4.8c-2-2.3-1.9-5.7-1.8-7c0-0.2,0-0.3,0-0.4c-0.2-1-0.5-1.8-0.9-2.4&#10;&#9;&#9;&#9;&#9;&#9;c-0.1-0.2-0.2-0.3-0.3-0.5l-0.8-1.1l1.3,0.3c6.9,1.6,13.6,8,13.2,18.4c0.6,25.9-15,39.9-26.8,48.2&#10;&#9;&#9;&#9;&#9;&#9;C494.2,224.2,476.4,229.3,453.6,230z M522.6,149c0.4,0.7,0.6,1.5,0.7,2.2c0,0.1,0,0.3,0,0.6c-0.1,1.3-0.2,4.8,2,6.8l0.6,0.6&#10;&#9;&#9;&#9;&#9;&#9;l-0.8,0.2c0,0-3.4,1.1-4,4.3c-0.8,4.1,1.7,6.1,1.7,6.1c0.2,0.1,4.6,3.6,2.8,13c-2.7,11.4-9.3,21-20,29.4&#10;&#9;&#9;&#9;&#9;&#9;c-9.1,7.3-20.4,12.3-35,15.3c14.6-2.2,26.7-6.8,36.7-13.9c18.7-13.2,26.9-27.8,26.4-47.4C534.3,156.8,528.7,151,522.6,149z" style="fill: rgb(0, 0, 0); stroke: rgb(0, 0, 0); stroke-width: 0; fill-opacity: 1;"/>
			</g>
		</g>
		<g>
			<g>
				<path class="st3" d="M510.1,286.6c5.6,5.9,9.4,11.2,18.3,15.1c5.6,2.4,10.4,0.1,10.4,0.1s3.8-2.3,8.3,0.8&#10;&#9;&#9;&#9;&#9;&#9;c3.5,2.4,3.2,6.7,3.2,6.7c4.4-2.2,5.1,0.6,8.9,0.6c1.1,0,2-0.5,2.9-1.2c3.5-2.1,4.7-6.6,4-10.6c0.5,1,0.7,1.7,0.7,1.7&#10;&#9;&#9;&#9;&#9;&#9;c1.9,10.7-10.9,21.4-29,13.4c-3.6-1.6-7.5-4.2-11.3-7.2c-7.6-4.7-12.4-11.4-17.7-18.1C510,288.6,510.8,288.2,510.1,286.6z" style="fill: rgb(0, 0, 0); stroke: rgb(0, 0, 0); stroke-width: 0; fill-opacity: 1;"/>
				<path class="st4" d="M549.9,316.4c-3.9,0-8-0.9-12.3-2.8c-3.2-1.4-7.1-3.8-11.4-7.2c-6.9-4.2-11.5-10.1-16.4-16.4l-1.4-1.8&#10;&#9;&#9;&#9;&#9;&#9;l0.6-0.7c0.3,0.2,0.5,0.3,0.7,0.3c0.1,0,0.1,0,0.1,0c0-0.1,0.1-0.3-0.2-0.9l0.8-0.5c0.9,0.9,1.7,1.8,2.5,2.7&#10;&#9;&#9;&#9;&#9;&#9;c4.4,4.9,8.3,9.1,15.6,12.3c1.6,0.7,3.4,1.1,5.1,1.1c2.9,0,4.9-1,4.9-1c0,0,1.4-0.9,3.6-0.9c1.8,0,3.5,0.6,5.2,1.7&#10;&#9;&#9;&#9;&#9;&#9;c2.8,1.9,3.3,4.9,3.4,6.3c0.9-0.4,1.8-0.6,2.5-0.6c1,0,1.8,0.3,2.7,0.7c0.9,0.4,1.8,0.8,3.2,0.8l0.1,0c0.9,0,1.8-0.4,2.6-1.1&#10;&#9;&#9;&#9;&#9;&#9;c3.2-1.9,4.6-5.9,3.8-10.2l0.9-0.3c0.5,1,0.7,1.8,0.7,1.8c0.7,3.8-0.4,7.6-3,10.7C561,314.2,555.7,316.4,549.9,316.4z&#10;&#9;&#9;&#9;&#9;&#9; M510,288.7l0.6,0.8c4.8,6.2,9.3,12,16.2,16.2c4.3,3.3,8.1,5.7,11.2,7.1c4.1,1.8,8.1,2.7,11.9,2.7c5.6,0,10.6-2.1,13.6-5.7&#10;&#9;&#9;&#9;&#9;&#9;c1.5-1.8,2.5-3.9,2.8-6.1c-0.7,2.3-2,4.3-4,5.4c-1,0.8-2,1.2-3.1,1.3l-0.1,0c-1.5,0-2.6-0.4-3.5-0.8c-0.8-0.3-1.4-0.6-2.3-0.6&#10;&#9;&#9;&#9;&#9;&#9;c-0.8,0-1.7,0.3-2.8,0.8l-0.7,0.4l0-0.8c0,0,0.2-4-3-6.2c-1.5-1-3-1.6-4.6-1.6c-1.9,0-3.1,0.7-3.1,0.7c-0.1,0.1-2.2,1.1-5.4,1.1&#10;&#9;&#9;&#9;&#9;&#9;c-1.9,0-3.7-0.4-5.5-1.1c-7.6-3.3-11.4-7.5-15.9-12.5c-0.5-0.5-0.9-1-1.4-1.6c0,0.1-0.1,0.1-0.1,0.2&#10;&#9;&#9;&#9;&#9;&#9;C510.5,288.5,510.3,288.7,510,288.7z" style="fill: rgb(0, 0, 0); stroke: rgb(0, 0, 0); stroke-width: 0; fill-opacity: 1;"/>
			</g>
		</g>
		<g>
			<g>
				<g>
					<path class="st3" d="M267.1,213.6c40.7,21.3,76.4,80.8,46.8,109.8c-13.2,13-28.8,13.9-39.6,12.8c-24.7-2.5-36.5-20.9-36.5-20.9&#10;&#9;&#9;&#9;&#9;&#9;&#9;s35.6,23.7,58-10c19.7-29.5-3.8-61.5-22-79.7c-3.9-3.4-6.5-5.7-9.9-8.3c-25.2-16.8-53.1-24.6-100.3-18.6&#10;&#9;&#9;&#9;&#9;&#9;&#9;c-8.3,1.1-14.2,2.8-23.9,4.8l10.5-5.6C150.1,197.9,214.9,184.1,267.1,213.6z" style="fill: rgb(0, 0, 0); stroke: rgb(0, 0, 0); stroke-width: 0; fill-opacity: 1;"/>
					<path class="st4" d="M280.8,337.1c-2.1,0-4.3-0.1-6.5-0.3c-24.6-2.5-36.7-20.9-36.9-21.1l0.7-0.6c0.1,0.1,12.2,8,26.5,8&#10;&#9;&#9;&#9;&#9;&#9;&#9;c12.6,0,23-6,30.9-17.9c19.8-29.8-5.3-62.3-22-79.1c-3.7-3.3-6.5-5.6-9.9-8.2c-21.3-14.2-43.1-20.5-70.6-20.5&#10;&#9;&#9;&#9;&#9;&#9;&#9;c-9.1,0-18.7,0.7-29.3,2c-5.2,0.7-9.4,1.6-14.4,2.7c-2.9,0.7-5.9,1.3-9.6,2l-0.3-0.9l10.7-5.7c0.2,0,15.4-3.2,36.8-3.2&#10;&#9;&#9;&#9;&#9;&#9;&#9;c21.4,0,52.8,3.3,80.5,19c28.6,15,53.2,47.2,57.3,75.1c2.1,14.4-1.5,26.7-10.4,35.5C305.2,332.6,294,337.1,280.8,337.1z&#10;&#9;&#9;&#9;&#9;&#9;&#9; M239.5,316.9c3.8,4.7,15.3,16.9,34.8,18.8c2.2,0.2,4.4,0.3,6.4,0.3c13,0,24-4.4,32.8-13c8.7-8.6,12.2-20.6,10.2-34.7&#10;&#9;&#9;&#9;&#9;&#9;&#9;c-4.1-27.6-28.5-59.5-56.8-74.4c-27.6-15.6-58.8-18.9-80.1-18.9c-20.6,0-35.4,3-36.5,3.2l-7.6,4.1c2.3-0.5,4.4-0.9,6.4-1.4&#10;&#9;&#9;&#9;&#9;&#9;&#9;c4.9-1.1,9.2-2.1,14.4-2.7c10.7-1.4,20.3-2,29.4-2c27.8,0,49.7,6.4,71.2,20.7c3.5,2.6,6.2,5,10,8.3c17,17,42.3,50,22.1,80.3&#10;&#9;&#9;&#9;&#9;&#9;&#9;c-8.1,12.1-18.8,18.3-31.7,18.3C253.4,323.9,243.6,319.2,239.5,316.9z" style="fill: rgb(0, 0, 0); stroke: rgb(0, 0, 0); stroke-width: 0; fill-opacity: 1;"/>
				</g>
			</g>
		</g>
		<g>
			<g>
				<path class="st3" d="M156.3,208.3c10.3,1.4,13.2,2.5,19.1,5.8c6,3.7,11.3,7.8,15.7,12.3c19.5,19.9,12.2,44.8-1.7,57.6&#10;&#9;&#9;&#9;&#9;&#9;c0.1-0.5,0.3-1.5,0.4-2c0.3-2.6-0.1-3.7-1.2-6c-0.4-0.9-7.3-9.8-4.4-18.6c0,0-9.1,2.1-14.6-4.7c-6.9-8.5-4.2-15.6-4.2-15.6&#10;&#9;&#9;&#9;&#9;&#9;s0.5-1.4,1.1-2.6c6.3-10.5-4.6-17.8-5.7-18.6c-6.3-4-21.5-10.9-67.4,12.9C93.4,228.9,117.9,206.8,156.3,208.3z" style="fill: rgb(0, 0, 0); stroke: rgb(0, 0, 0); stroke-width: 0; fill-opacity: 1;"/>
				<path class="st4" d="M188.7,285.2l0.2-1.3c0-0.2,0.1-0.5,0.2-0.9c0.1-0.4,0.2-0.8,0.2-1.1c0.3-2.4-0.1-3.4-1.1-5.7&#10;&#9;&#9;&#9;&#9;&#9;c0-0.1-0.2-0.3-0.4-0.6c-4.2-6.6-5.7-12.5-4.3-17.6c-0.6,0.1-1.5,0.2-2.6,0.2c-3.4,0-8.2-0.9-11.7-5.2c-7-8.6-4.4-15.7-4.3-16&#10;&#9;&#9;&#9;&#9;&#9;c0-0.1,0.5-1.4,1.1-2.6c5.3-8.8-2-15.4-5.4-17.9l-0.2-0.1c-2.9-1.9-7.3-4-15.2-4c-12.7,0-30.1,5.7-51.7,17l-0.5-0.8&#10;&#9;&#9;&#9;&#9;&#9;c0.2-0.2,23.4-20.8,59.3-20.8c1.3,0,2.5,0,3.8,0.1c10.7,1.5,13.5,2.6,19.3,5.8c6.2,3.9,11.5,8,15.8,12.4&#10;&#9;&#9;&#9;&#9;&#9;c8.1,8.3,12.3,18.2,12,28.7c-0.3,10.8-5.4,21.9-13.7,29.6L188.7,285.2z M184.9,256.7l-0.3,0.8c-1.7,5-0.3,10.9,4,17.6&#10;&#9;&#9;&#9;&#9;&#9;c0.2,0.3,0.4,0.6,0.4,0.7c1.1,2.4,1.5,3.6,1.2,6.2c0,0.2-0.1,0.4-0.1,0.6c7.5-7.4,12.1-17.7,12.3-27.9&#10;&#9;&#9;&#9;&#9;&#9;c0.3-10.2-3.8-19.9-11.7-28c-4.2-4.3-9.4-8.4-15.6-12.2c-5.7-3.1-8.5-4.3-19-5.7c-1.2,0-2.5-0.1-3.7-0.1&#10;&#9;&#9;&#9;&#9;&#9;c-27.1,0-47,11.9-54.9,17.6c19.8-9.9,35.9-14.9,47.8-14.9c8.1,0,12.6,2.2,15.7,4.2l0.2,0.1c3.6,2.6,11.4,9.6,5.7,19.1&#10;&#9;&#9;&#9;&#9;&#9;c-0.5,1.1-1.1,2.5-1.1,2.5c0,0.1-2.5,7,4.1,15.1c3.3,4,7.8,4.8,11,4.8c1.8,0,3.1-0.3,3.1-0.3L184.9,256.7z" style="fill: rgb(0, 0, 0); stroke: rgb(0, 0, 0); stroke-width: 0; fill-opacity: 1;"/>
			</g>
		</g>
		<g>
			<g>
				<path class="st3" d="M357.5,266.6c3.8,1.6,5,1.8,7.6,2c2.8,0,5.4-0.3,7.8-0.9c10.7-2.7,13.3-12.6,11.2-19.8&#10;&#9;&#9;&#9;&#9;&#9;c-0.1,0.2-0.2,0.6-0.3,0.8c-0.4,0.9-0.8,1.2-1.6,1.8c-0.3,0.2-4.5,1.8-5.3,5.4c0,0-2.6-2.6-5.9-1.4c-4.1,1.4-4.6,4.4-4.6,4.4&#10;&#9;&#9;&#9;&#9;&#9;s-0.1,0.6-0.1,1.1c0,4.8-5.2,5.1-5.7,5.1c-2.9,0.1-13.1-3.2-26.9-18.6C333.7,246.3,344,259.8,357.5,266.6z" style="fill: rgb(0, 0, 0); stroke: rgb(0, 0, 0); stroke-width: 0; fill-opacity: 1;"/>
				<path class="st4" d="M365.2,269L365.2,269c-2.8-0.1-4.1-0.4-7.8-2c-13.5-6.7-23.9-20.3-24-20.4l0.7-0.6&#10;&#9;&#9;&#9;&#9;&#9;c16.4,18.2,26.4,18.4,26.5,18.4l0.1,0c1.9-0.2,5.2-1,5.2-4.6c0-0.6,0.2-1.2,0.2-1.2c0-0.1,0.6-3.2,4.9-4.7&#10;&#9;&#9;&#9;&#9;&#9;c0.6-0.2,1.2-0.3,1.9-0.3c1.8,0,3.2,0.8,3.9,1.4c0.7-1.9,2.4-3.5,5.1-4.8c0.1-0.1,0.2-0.1,0.2-0.1c0.8-0.5,1.1-0.7,1.4-1.6&#10;&#9;&#9;&#9;&#9;&#9;c0-0.1,0.1-0.3,0.2-0.4c0-0.1,0.1-0.3,0.1-0.3l0.5-1.3l0.4,1.3c1.3,4.4,0.7,9.2-1.5,13c-2.1,3.7-5.6,6.2-10.1,7.4&#10;&#9;&#9;&#9;&#9;&#9;C370.7,268.6,368.1,269,365.2,269L365.2,269z M348,259.8c3,2.3,6.3,4.5,9.8,6.3c3.8,1.6,4.9,1.8,7.4,1.9c2.8,0,5.4-0.3,7.7-0.9&#10;&#9;&#9;&#9;&#9;&#9;c4.3-1.1,7.6-3.5,9.5-6.9c1.8-3.2,2.4-7.2,1.7-10.9c-0.4,0.6-0.8,1-1.5,1.4c0,0-0.2,0.1-0.3,0.2c-2.7,1.3-4.3,3-4.8,4.9&#10;&#9;&#9;&#9;&#9;&#9;l-0.2,0.8l-0.6-0.6c0,0-1.7-1.6-3.8-1.6c-0.5,0-1.1,0.1-1.6,0.3c-3.7,1.3-4.3,3.9-4.3,4c0,0-0.1,0.6-0.1,1&#10;&#9;&#9;&#9;&#9;&#9;c0,3.2-2.2,5.2-6.1,5.5l-0.1,0l0,0C358.5,265.4,354,264,348,259.8z" style="fill: rgb(0, 0, 0); stroke: rgb(0, 0, 0); stroke-width: 0; fill-opacity: 1;"/>
			</g>
		</g>
		<g>
			<g>
				<path class="st3" d="M414.8,215c2.7-1.9,3.4-2.6,4.6-4.5c1.2-1.9,2.1-3.9,2.7-5.8c2.6-8.5-3.1-14.6-8.9-16.2&#10;&#9;&#9;&#9;&#9;&#9;c0.1,0.1,0.3,0.4,0.4,0.5c0.5,0.7,0.5,1.1,0.5,1.9c0,0.3-0.7,3.9,1.5,5.9c0,0-2.9,0.7-3.5,3.5c-0.7,3.4,1.1,5.1,1.1,5.1&#10;&#9;&#9;&#9;&#9;&#9;s0.4,0.3,0.7,0.6c3.3,2.1,1.3,5.7,1.1,6.1c-1.2,2.1-7.8,7.7-24.3,10.7C390.7,222.9,404.4,221.5,414.8,215z" style="fill: rgb(0, 0, 0); stroke: rgb(0, 0, 0); stroke-width: 0; fill-opacity: 1;"/>
				<path class="st4" d="M390.7,223.3l-0.1-0.9c16.4-3,22.9-8.6,24-10.5c0.7-1.4,1.5-4-0.9-5.5c-0.4-0.3-0.8-0.6-0.8-0.6&#10;&#9;&#9;&#9;&#9;&#9;c-0.1-0.1-2-1.8-1.2-5.5c0.5-2.1,2.2-3.2,3.1-3.6c-1-1.3-1.4-3.2-1.1-5.5c0-0.1,0-0.2,0-0.2c0-0.7-0.1-1-0.5-1.6&#10;&#9;&#9;&#9;&#9;&#9;c0-0.1-0.1-0.2-0.2-0.3c-0.1-0.1-0.1-0.2-0.2-0.2l-0.8-1.1l1.3,0.4c3.6,1,6.7,3.5,8.4,6.6c1.7,3,1.9,6.5,0.8,10.2&#10;&#9;&#9;&#9;&#9;&#9;c-0.6,1.9-1.5,3.9-2.7,5.9c-1.3,1.9-2,2.7-4.7,4.6C404.7,221.9,390.9,223.3,390.7,223.3z M414.3,189.4c0.2,0.5,0.2,0.9,0.3,1.5&#10;&#9;&#9;&#9;&#9;&#9;c0,0,0,0.2,0,0.3c-0.2,2.4,0.2,4.2,1.3,5.3l0.6,0.6l-0.8,0.2c-0.1,0-2.6,0.7-3.1,3.1c-0.7,3.1,0.9,4.6,0.9,4.6&#10;&#9;&#9;&#9;&#9;&#9;c0,0,0.3,0.3,0.7,0.5c2.3,1.4,2.7,3.8,1.3,6.7c-0.8,1.3-2.9,3.3-6.9,5.4c2.1-0.9,4.1-1.9,6-3.1c2.6-1.9,3.2-2.5,4.5-4.3&#10;&#9;&#9;&#9;&#9;&#9;c1.2-1.9,2-3.9,2.6-5.7c1-3.4,0.8-6.7-0.7-9.5C419.5,192.6,417.1,190.5,414.3,189.4z" style="fill: rgb(0, 0, 0); stroke: rgb(0, 0, 0); stroke-width: 0; fill-opacity: 1;"/>
			</g>
		</g>
		<g>
			<g>
				<g>
					<g>
						<path class="st3" d="M287.7,251.4c-0.2,0.2-3.2-7.9-11.6-17.5c-8.1-9.8-22.1-20.2-38.2-26.5c-32.2-13.3-68.5-11.4-71.2-11&#10;&#9;&#9;&#9;&#9;&#9;&#9;&#9;c-5.9,0.3-10.6,1.1-10.6,1.7c0,0.6,4.8,0.9,10.7,0.6c2.7-0.4,38.4-2.9,70.6,9.8c16,6,30.1,16.1,38.3,25.7&#10;&#9;&#9;&#9;&#9;&#9;&#9;&#9;C284.3,243.5,287.5,251.5,287.7,251.4z" style="fill: rgb(0, 0, 0); stroke: rgb(0, 0, 0); stroke-width: 0; fill-opacity: 1;"/>
						<path class="st4" d="M287.7,251.8C287.6,251.8,287.6,251.8,287.7,251.8c-0.2,0-0.3-0.1-0.4-0.2c-0.1-0.2-0.3-0.5-0.6-1.1&#10;&#9;&#9;&#9;&#9;&#9;&#9;&#9;c-1.3-2.4-4.6-8.9-11.3-16.2c-8.8-10.3-23.1-19.9-38.1-25.6c-22.5-8.9-46.7-10.2-59.2-10.2c-6.6,0-10.6,0.4-11.2,0.4&#10;&#9;&#9;&#9;&#9;&#9;&#9;&#9;c-1.6,0.1-3.2,0.1-4.6,0.1c-6.5,0-6.6-0.8-6.6-1.2c0-0.1,0-0.3,0.2-0.5c0.9-1,7.2-1.6,10.9-1.7c0.7-0.1,3.8-0.3,8.8-0.3&#10;&#9;&#9;&#9;&#9;&#9;&#9;&#9;c10.6,0,37.8,1.1,62.6,11.4c15.2,6,29.6,16,38.3,26.7c6.6,7.6,9.9,14.2,11.1,16.6c0.2,0.4,0.4,0.8,0.5,0.9l-0.3,0.2l0,0.1&#10;&#9;&#9;&#9;&#9;&#9;&#9;&#9;l0.3,0.4l-0.1,0.1L287.7,251.8z M178.2,197.8c12.5,0,36.8,1.3,59.5,10.2c3.8,1.4,7.6,3.1,11.3,5c-3.7-2-7.4-3.8-11.2-5.3&#10;&#9;&#9;&#9;&#9;&#9;&#9;&#9;c-24.6-10.2-51.8-11.3-62.3-11.3c-4.8,0-8,0.2-8.7,0.3c-5,0.3-8.4,0.8-9.7,1.2c0.8,0.2,2.5,0.3,5.2,0.3c1.4,0,3,0,4.6-0.1&#10;&#9;&#9;&#9;&#9;&#9;&#9;&#9;C167.8,198.1,172.1,197.8,178.2,197.8z" style="fill: rgb(0, 0, 0); stroke: rgb(0, 0, 0); stroke-width: 0; fill-opacity: 1;"/>
					</g>
				</g>
			</g>
		</g>
		<g>
			<path class="st3" d="M243.7,153.2c-0.5,1.4-5.5,10-15.7,17.2c-10,7.4-24.2,14-38.6,19c-28.8,10-58.1,14.4-58.1,14.6&#10;&#9;&#9;&#9;&#9;c-0.1-0.1-24,8.5-36.8,17.9c-12.9,9.3-19.1,17.3-19,17.3c0,0,5.7-8.3,18.5-18.1c12.6-9.9,32.5-20.6,56.2-26.8&#10;&#9;&#9;&#9;&#9;c13.2-2.9,25.6-5.7,36.5-8.8c0.3-0.1,0.7-0.3,1-0.4c13.7-5.9,26.9-13.4,35.3-20.8c8.7-7.3,11.8-14.1,12.1-15&#10;&#9;&#9;&#9;&#9;c1.9-3.8,3.8-6.5,6.3-7C244.2,141.5,246.5,147.7,243.7,153.2z" style="fill: rgb(0, 0, 0); stroke: rgb(0, 0, 0); stroke-width: 0; fill-opacity: 1;"/>
			<path class="st4" d="M75.9,239.5l-0.4-0.3l0,0l-0.4,0.1c0,0,0,0,0,0l0,0c0-0.1,0.1-0.4,0.4-0.7c1.6-2.4,8.1-10.1,18.3-17.8&#10;&#9;&#9;&#9;&#9;c14.8-11.6,35.4-21.4,56.4-26.9c12.3-2.7,25.3-5.6,36.5-8.8l1-0.4c14.5-6.3,27.3-13.8,35.2-20.7c9.3-7.8,12-14.8,12-14.8&#10;&#9;&#9;&#9;&#9;c1.6-3.3,3.7-6.7,6.6-7.3c1-0.2,2.2,0.3,2.9,1.6c1.3,2.1,1.8,6.2-0.3,10.1c-0.6,1.7-5.9,10.3-15.8,17.3&#10;&#9;&#9;&#9;&#9;c-9.2,6.9-22.9,13.6-38.7,19.1c-23.8,8.3-47.8,12.6-55.7,14.1c-1.3,0.2-2.2,0.4-2.4,0.5l-0.1-0.4l-0.1,0l0,0.4&#10;&#9;&#9;&#9;&#9;c-0.8,0.2-24.1,8.7-36.6,17.9C82.1,231.4,75.9,239.4,75.9,239.5z M241.9,142.6c-0.1,0-0.2,0-0.3,0c-2.1,0.4-3.8,2.5-6,6.8&#10;&#9;&#9;&#9;&#9;c0,0-2.8,7.2-12.3,15.2c-8,7-20.9,14.6-35.5,20.9l-1,0.4c-11.3,3.3-24.3,6.2-36.6,8.9c-20.6,5.4-40.8,15-55.5,26.4&#10;&#9;&#9;&#9;&#9;c12.6-9.1,34.4-17.1,36.5-17.6c0.3-0.1,0.9-0.2,2.6-0.5c7.9-1.4,31.8-5.8,55.5-14c15.7-5.4,29.3-12.1,38.4-18.9&#10;&#9;&#9;&#9;&#9;c10.4-7.4,15.1-15.9,15.5-16.9c1.8-3.5,1.5-7.3,0.3-9.3C243.1,143,242.5,142.6,241.9,142.6z" style="fill: rgb(0, 0, 0); stroke: rgb(0, 0, 0); stroke-width: 0; fill-opacity: 1;"/>
		</g>
		<g>
			<g>
				<path class="st3" d="M212.8,184.4c0,0-14.6,7-27.8,5.3l0.4,2C185.3,191.6,194.4,192.2,212.8,184.4z" style="fill: rgb(0, 0, 0); stroke: rgb(0, 0, 0); stroke-width: 0; fill-opacity: 1;"/>
				<path class="st4" d="M185.8,192.1L185.8,192.1c-0.3,0-0.5,0-0.5,0l-0.4,0l-0.5-3l0.6,0.1c1.4,0.2,2.9,0.3,4.4,0.3&#10;&#9;&#9;&#9;&#9;&#9;c7,0,13.9-1.9,18.5-3.6c1.6-0.6,3.2-1.2,4.8-1.9l0.4,0.9c-0.1,0-1.9,0.9-4.8,2C195.2,191.7,187.7,192.1,185.8,192.1z&#10;&#9;&#9;&#9;&#9;&#9; M185.7,191.2C185.7,191.2,185.7,191.2,185.7,191.2L185.7,191.2c1.1,0,3.8-0.1,8-1c-2.7,0.3-5.6,0.3-8.2,0L185.7,191.2z" style="fill: rgb(0, 0, 0); stroke: rgb(0, 0, 0); stroke-width: 0; fill-opacity: 1;"/>
			</g>
		</g>
		<g>
			<path class="st3" d="M162.1,200c-28.4,5.4-50.5,18.9-68.8,30.3c-5.9,3.7-11.2,8.4-16.5,12.9c-12.6,13.9-21.9,30.9-20.4,50.1&#10;&#9;&#9;&#9;&#9;c1.1,15.4,10.5,29.7,24.5,36.2c15,7.1,35.1,2.3,42.1-13.6c4.2-9.6,2.9-20-4.2-26.9c-6.9-5.1-12.1-4-7.2-0.3&#10;&#9;&#9;&#9;&#9;c1.1,0.8,2,1.8,2.6,2.8c-0.1-0.2-0.2-0.4-0.2-0.4c0,0.1,0.3,0.5,0.7,1.1c0.2,0.4,0.4,0.7,0.5,1.1c0.1,0.2,0.2,0.5,0.3,0.7&#10;&#9;&#9;&#9;&#9;c0.7,2,1.4,5.4,0,9.5c-1.3,4-5.4,8.2-11.3,9.5c-5.8,1.4-13.7-0.5-18.3-6.8c-4.6-6.1-6-15.8-1.5-23.9c4.3-8.2,14.3-13.3,24.6-12.6&#10;&#9;&#9;&#9;&#9;c6.5,0.3,13.1,3.2,18,8c7.5,6.8,11.5,18.9,9.8,29.4c-3.1,19.6-21.1,32-40.2,32.3c-17.3,0.3-32.6-10.5-40.6-25.4&#10;&#9;&#9;&#9;&#9;c-8-14.8-7.5-32-1.8-47.3c3.9-13.7,13.6-30.1,29.5-42.5c17.8-14.3,37.5-21.2,51.4-25.4c14.1-4,23.1-5.3,23.1-5.4&#10;&#9;&#9;&#9;&#9;C158.1,193.6,162.1,200,162.1,200z" style="fill: rgb(0, 0, 0); stroke: rgb(0, 0, 0); stroke-width: 0; fill-opacity: 1;"/>
			<path class="st4" d="M95.7,339.9c-16.4,0-31.8-9.8-40.3-25.6c-7.4-13.9-8.1-30.8-1.8-47.7c4.5-15.8,15.6-31.7,29.6-42.7&#10;&#9;&#9;&#9;&#9;c18-14.4,38.1-21.5,51.6-25.5c10.9-3.1,18.8-4.6,21.8-5.1c0.6-0.1,1.2-0.2,1.3-0.2l0.1,0.4l0.5-0.1c0.1,0.2,2.5,3.9,4,6.4&#10;&#9;&#9;&#9;&#9;l0.4,0.6l-0.7,0.1c-29.1,5.6-52,19.8-68.6,30.2c-5.1,3.2-9.8,7.2-14.3,11.1c-0.7,0.6-1.4,1.2-2.1,1.8&#10;&#9;&#9;&#9;&#9;c-14.7,16.2-21.5,32.9-20.3,49.8c1.1,15.4,10.6,29.5,24.2,35.9c4.4,2.1,9.3,3.1,14.3,3.1c12.3,0,22.7-6.3,27.2-16.5&#10;&#9;&#9;&#9;&#9;c4.3-9.7,2.7-19.8-4.1-26.4c-3.3-2.5-6.1-3.3-7.5-3.3c-0.5,0-0.8,0.1-0.9,0.3c-0.1,0.2,0.2,0.9,1.7,2.1c1,0.7,1.8,1.6,2.5,2.6&#10;&#9;&#9;&#9;&#9;l0,0l0.1,0.1c0.1,0.2,0.3,0.5,0.6,1c0.2,0.4,0.4,0.7,0.5,1.1c0.1,0.2,0.2,0.5,0.3,0.8c0.8,2.2,1.5,5.7,0,9.8&#10;&#9;&#9;&#9;&#9;c-1.2,3.9-5.3,8.4-11.7,9.8c-1.2,0.3-2.6,0.5-3.9,0.5c-5.9,0-11.4-2.8-14.9-7.5c-5.1-6.8-5.7-16.8-1.5-24.4&#10;&#9;&#9;&#9;&#9;c4.3-8.2,14.6-13.5,25-12.9c6.6,0.3,13.2,3.2,18.3,8.1c7.5,6.9,11.6,19.1,9.9,29.8c-3,18.6-20.1,32.4-40.6,32.7&#10;&#9;&#9;&#9;&#9;C96.2,339.9,95.9,339.9,95.7,339.9z M157.8,194c-0.2,0-0.6,0.1-1.1,0.2c-3,0.5-10.8,2-21.7,5.1c-13.4,4-33.4,11-51.3,25.3&#10;&#9;&#9;&#9;&#9;c-13.9,10.8-24.8,26.6-29.3,42.2c-6.2,16.7-5.6,33.3,1.7,47c8.3,15.5,23.5,25.1,39.5,25.1c0.2,0,0.5,0,0.7,0&#10;&#9;&#9;&#9;&#9;c20.1-0.3,36.8-13.8,39.7-31.9c1.7-10.4-2.3-22.3-9.6-29c-4.9-4.7-11.4-7.6-17.7-7.8c-0.6,0-1.1-0.1-1.7-0.1&#10;&#9;&#9;&#9;&#9;c-9.5,0-18.5,5-22.5,12.4c-4,7.3-3.4,16.9,1.5,23.4c3.2,4.5,8.5,7.1,14.1,7.1c1.3,0,2.6-0.1,3.7-0.4c6-1.3,9.9-5.6,11-9.2&#10;&#9;&#9;&#9;&#9;c1.4-3.9,0.7-7.1,0-9.2c-0.1-0.3-0.2-0.5-0.3-0.7c-0.1-0.4-0.3-0.7-0.5-1c-0.2-0.3-0.3-0.5-0.4-0.7l0,0c-0.7-1-1.5-1.9-2.5-2.7&#10;&#9;&#9;&#9;&#9;c-1.6-1.2-2.3-2.3-2.1-3.1c0.1-0.3,0.5-0.9,1.7-0.9c1.6,0,4.6,0.9,8.1,3.6c7.1,6.9,8.8,17.4,4.4,27.5&#10;&#9;&#9;&#9;&#9;c-4.7,10.5-15.4,17.1-28.1,17.1c0,0,0,0,0,0c-5.1,0-10.2-1.1-14.7-3.2c-13.9-6.5-23.6-20.9-24.7-36.6&#10;&#9;&#9;&#9;&#9;c-1.3-17.1,5.6-34.1,20.6-50.5c0.7-0.6,1.4-1.2,2.2-1.8c4.6-3.9,9.3-8,14.4-11.2c16.6-10.4,39.3-24.5,68.3-30.2&#10;&#9;&#9;&#9;&#9;C159,196,158.2,194.6,157.8,194z" style="fill: rgb(0, 0, 0); stroke: rgb(0, 0, 0); stroke-width: 0; fill-opacity: 1;"/>
		</g>
		<g>
			<g>
				<path class="st3" d="M248.6,375.8c0.1,11.1,12.9,20.8,12.9,20.9l0,0l0.6-0.7c0,0-3.1-2.4-6.3-6.2l0,0c-3.1-3.7-6.2-8.8-6.2-14&#10;&#9;&#9;&#9;&#9;&#9;l0,0c0-4,1.8-8.1,6.9-11.9l0,0l-0.6-0.7C250.6,367.1,248.6,371.5,248.6,375.8L248.6,375.8C248.6,375.8,248.6,375.8,248.6,375.8&#10;&#9;&#9;&#9;&#9;&#9;L248.6,375.8z" style="fill: rgb(0, 0, 0); stroke: rgb(0, 0, 0); stroke-width: 0; fill-opacity: 1;"/>
				<path class="st4" d="M261.3,397.7l-0.2-0.7c-3-2.4-12.9-11.2-12.9-21.1c0-5,2.5-9.3,7.5-13l0.4-0.3l1.1,1.5l-0.4,0.3&#10;&#9;&#9;&#9;&#9;&#9;c-4.5,3.4-6.7,7.2-6.7,11.5c0,5.3,3.3,10.3,6.1,13.7c2.6,3.1,5.2,5.2,6.1,6l0.1,0.1l0.1,0.4L261.3,397.7z M255.8,363.8&#10;&#9;&#9;&#9;&#9;&#9;c-4.4,3.5-6.7,7.5-6.7,12c0,0,0,0,0,0C249.1,371.3,251.4,367.3,255.8,363.8L255.8,363.8z" style="fill: rgb(0, 0, 0); stroke: rgb(0, 0, 0); stroke-width: 0; fill-opacity: 1;"/>
			</g>
		</g>
		<g>
			<g>
				<path class="st3" d="M327,248.7c0,0,60.7,73.2,8.3,120.4c0,0-8.8,7.4-22.9,4.7c-12.3-2.3-20,8.7-11.5,17.2&#10;&#9;&#9;&#9;&#9;&#9;c8.4,8.4,64,3.4,60.7-68.6C359.8,286.6,327,248.7,327,248.7z" style="fill: rgb(0, 0, 0); stroke: rgb(0, 0, 0); stroke-width: 0; fill-opacity: 1;"/>
				<path class="st4" d="M311.9,394.5L311.9,394.5c-5.2,0-9.5-1.2-11.5-3.2c-3.5-3.5-4.6-7.7-3-11.5c1.7-4.1,6.3-6.8,11.6-6.8&#10;&#9;&#9;&#9;&#9;&#9;c1.1,0,2.2,0.1,3.4,0.3c2,0.4,4,0.6,6,0.6c10.2,0,16.5-5.1,16.5-5.2c26.9-24.2,23.2-55.5,15.4-77.4&#10;&#9;&#9;&#9;&#9;&#9;c-8.5-23.8-23.6-42.2-23.7-42.4l0.7-0.6c0.3,0.4,33,38.4,34.6,73.9c1.1,24.7-4.7,44.5-17,57.3&#10;&#9;&#9;&#9;&#9;&#9;C331.8,393.4,316.4,394.5,311.9,394.5z M309,374c-5,0-9.2,2.4-10.7,6.2c-1.4,3.5-0.4,7.3,2.8,10.5c1.8,1.8,5.9,2.9,10.8,2.9h0&#10;&#9;&#9;&#9;&#9;&#9;c4.3,0,19.5-1,32.4-14.5c12-12.6,17.8-32.2,16.7-56.7c-0.9-19.5-11.2-39.7-20.3-53.9c3.7,6.5,7.5,14.2,10.5,22.6&#10;&#9;&#9;&#9;&#9;&#9;c7.9,22.2,11.6,53.9-15.7,78.5c-0.3,0.2-6.6,5.4-17.1,5.4c-2,0-4.1-0.2-6.2-0.6C311.2,374.1,310.1,374,309,374z" style="fill: rgb(0, 0, 0); stroke: rgb(0, 0, 0); stroke-width: 0; fill-opacity: 1;"/>
			</g>
		</g>
		<g>
			<g>
				<g>
					<g>
						<path class="st3" d="M245.6,383.6l7.1-4.5c7,11,20.5,19,34.7,20.6c14.3,1.8,29.3-1.5,43-7.1c-13.2,6.8-27.9,11.8-43.3,11.3&#10;&#9;&#9;&#9;&#9;&#9;&#9;&#9;C271.6,403.4,256,396.9,245.6,383.6z" style="fill: rgb(0, 0, 0); stroke: rgb(0, 0, 0); stroke-width: 0; fill-opacity: 1;"/>
						<path class="st4" d="M289.1,404.4c-0.7,0-1.4,0-2.1,0c-16.8-0.5-32-8-41.8-20.5l-0.3-0.4l8-5l0.3,0.4&#10;&#9;&#9;&#9;&#9;&#9;&#9;&#9;c6.9,10.8,20.4,18.9,34.4,20.4c12.8,1.6,27.2-0.8,42.8-7.1l0.4,0.8C315.8,400.7,302.3,404.4,289.1,404.4z M246.3,383.7&#10;&#9;&#9;&#9;&#9;&#9;&#9;&#9;c9.7,12,24.5,19.2,40.8,19.7c0.7,0,1.4,0,2,0c10.3,0,20.9-2.3,32.1-7.1c-12.2,3.8-23.6,5.1-33.9,3.8&#10;&#9;&#9;&#9;&#9;&#9;&#9;&#9;c-14-1.6-27.6-9.6-34.8-20.4L246.3,383.7z" style="fill: rgb(0, 0, 0); stroke: rgb(0, 0, 0); stroke-width: 0; fill-opacity: 1;"/>
					</g>
				</g>
			</g>
		</g>
		<g>
			<g>
				<path class="st3" d="M352.6,380.2c-4.1,5.9-9.5,10.8-14.1,16c-4.2,5.1-7.6,10.8-9.4,16.5c-1.1,8.2,4.4,12.3,4.4,12.3&#10;&#9;&#9;&#9;&#9;&#9;s3.2,0.7,3.8,5.8c0.4,3.7-2.8,5.9-2.8,5.9c4,1.8,2.3,3.8,4.5,6.5c2.2,2.6,7.9,1.4,9.8-0.6c1.9-2,0.2-4.8-1.3-5.2&#10;&#9;&#9;&#9;&#9;&#9;c-1.6-0.4-3.3-2.7-1.7-4.5c1.7-1.7,3.7-0.2,5.5,2.6c2.3,3.8-1.7,7.8-1.7,7.8c-6.3,7.1-25.1,3-27.6-13.7&#10;&#9;&#9;&#9;&#9;&#9;c-0.8-5.8,0-11.6,2.8-17.8c2-5.1,4.8-9.7,8.1-14c5.8-7,12.7-12.1,18-19c11.1-13.3,15.7-31.2,14.7-48.6&#10;&#9;&#9;&#9;&#9;&#9;C367.4,347.6,363.5,366,352.6,380.2z" style="fill: rgb(0, 0, 0); stroke: rgb(0, 0, 0); stroke-width: 0; fill-opacity: 1;"/>
				<path class="st4" d="M340.9,447.2c-8.4,0-17.7-6-19.4-17.4c-0.9-6,0.1-11.9,2.9-18.1c1.9-5,4.7-9.7,8.2-14.1&#10;&#9;&#9;&#9;&#9;&#9;c2.7-3.3,5.7-6.2,8.6-9c3.4-3.3,6.6-6.4,9.4-10c10.4-12.4,15.7-30,14.6-48.3l0.9-0.1c1.8,18.6-3,36.9-13.2,50.2&#10;&#9;&#9;&#9;&#9;&#9;c-2.8,3.9-6.1,7.5-9.4,10.9c-1.6,1.7-3.2,3.4-4.7,5.1c-4.5,5.5-7.7,11.2-9.3,16.3c-0.9,7.3,3.6,11.3,4.2,11.8&#10;&#9;&#9;&#9;&#9;&#9;c0.6,0.2,3.5,1.3,4,6.2c0.3,2.9-1.5,5-2.4,5.8c2,1.1,2.4,2.3,2.7,3.6c0.2,0.8,0.5,1.7,1.3,2.7c0.9,1.1,2.4,1.3,3.5,1.3&#10;&#9;&#9;&#9;&#9;&#9;c0,0,0,0,0,0c2.1,0,4.5-0.8,5.6-2c0.9-0.9,0.8-1.8,0.6-2.5c-0.3-0.9-1-1.8-1.7-1.9c-1.1-0.2-2.2-1.3-2.6-2.5&#10;&#9;&#9;&#9;&#9;&#9;c-0.3-1-0.1-2,0.7-2.7c0.6-0.6,1.2-0.9,1.9-0.9c1.8,0,3.3,2,4.3,3.6c2.5,4-1.6,8.2-1.8,8.4C347.9,446,344.7,447.2,340.9,447.2&#10;&#9;&#9;&#9;&#9;&#9;C340.9,447.2,340.9,447.2,340.9,447.2z M364,353.4c-2.4,9.7-6.8,18.6-12.7,25.8c-2.8,3.7-6.1,6.8-9.5,10.1&#10;&#9;&#9;&#9;&#9;&#9;c-2.9,2.8-5.8,5.7-8.5,8.9c-3.4,4.3-6.1,9-8,13.9c-2.8,6-3.7,11.7-2.8,17.6c1.6,10.9,10.5,16.6,18.5,16.6c0,0,0,0,0,0&#10;&#9;&#9;&#9;&#9;&#9;c3.5,0,6.5-1.2,8.3-3.2c0.1-0.1,3.8-3.9,1.7-7.3c-1.2-2-2.5-3.1-3.5-3.1c-0.4,0-0.8,0.2-1.2,0.6c-0.6,0.7-0.6,1.4-0.5,1.8&#10;&#9;&#9;&#9;&#9;&#9;c0.3,0.9,1.1,1.7,1.9,1.9c1,0.2,2,1.3,2.4,2.6c0.4,1.3,0.1,2.5-0.8,3.4c-1.3,1.3-3.9,2.2-6.3,2.2c0,0,0,0,0,0&#10;&#9;&#9;&#9;&#9;&#9;c-1.9,0-3.4-0.6-4.3-1.7c-0.9-1.1-1.2-2.1-1.4-3c-0.4-1.3-0.7-2.3-2.9-3.3l-0.7-0.3l0.7-0.5c0,0,3-2.1,2.6-5.4&#10;&#9;&#9;&#9;&#9;&#9;c-0.5-4.6-3.3-5.4-3.4-5.4l-0.2-0.1c-0.2-0.2-5.7-4.4-4.6-12.8c1.6-5.3,4.9-11.1,9.5-16.7c1.5-1.7,3.2-3.5,4.8-5.1&#10;&#9;&#9;&#9;&#9;&#9;c3.2-3.4,6.6-6.9,9.3-10.8C358,372.4,362,363.3,364,353.4z" style="fill: rgb(0, 0, 0); stroke: rgb(0, 0, 0); stroke-width: 0; fill-opacity: 1;"/>
			</g>
		</g>
		<g>
			<g>
				<path class="st3" d="M444.5,233c28.9-1.3,59.4-4.9,85.5-15.7c4.5-3.1,4.8-5.7,7-8.8c7.8-10.7,14.8-21.7,32-20.5&#10;&#9;&#9;&#9;&#9;&#9;c5.5,0.4,17.4-0.5,21.1-6.3c5.3-8.3,2.6-14.9-3.3-16.5c-2.5,2.4-4.9,1.9-5.4-0.3c-1.4-5.4,15.5-9.1,17.7,11.5&#10;&#9;&#9;&#9;&#9;&#9;c1.1,11-6,19.9-11,25.1c-2.1,2.4-6.1,5.6-10.3,8.8c-8.3,6.2-31.7,17.2-64.5,21c-24,3.9-45.9,5.7-68.8,6&#10;&#9;&#9;&#9;&#9;&#9;c-35.3-0.2-70.2-4.7-104.6-11.5C374.5,231.1,409.6,234.2,444.5,233z" style="fill: rgb(0, 0, 0); stroke: rgb(0, 0, 0); stroke-width: 0; fill-opacity: 1;"/>
				<path class="st4" d="M444.5,237.6L444.5,237.6c-32.4-0.2-66.6-3.9-104.7-11.5l0.2-0.9c32.3,5.1,61.4,7.5,89.2,7.5c0,0,0,0,0,0&#10;&#9;&#9;&#9;&#9;&#9;c5.1,0,10.3-0.1,15.3-0.3c22.9-1,56.7-3.8,85.3-15.7c3-2,4-3.9,5.2-5.9c0.5-0.9,1-1.8,1.6-2.7l1.1-1.5&#10;&#9;&#9;&#9;&#9;&#9;c7.2-9.9,14-19.3,28.9-19.3c0.8,0,1.6,0,2.5,0.1c0.7,0,1.5,0.1,2.3,0.1c7,0,15.5-1.6,18.4-6.1c2.6-4.1,3.4-8.1,2.2-11.2&#10;&#9;&#9;&#9;&#9;&#9;c-0.8-2.2-2.6-3.8-5-4.5c-1.1,1-2.2,1.5-3.3,1.5c-1.3,0-2.3-0.8-2.7-2.2c-0.2-0.9-0.1-1.8,0.6-2.6c1-1.3,3.1-2.2,5.4-2.2&#10;&#9;&#9;&#9;&#9;&#9;c5.3,0,11.4,4.2,12.7,16.1c0.9,8.5-2.8,16.8-11.1,25.4c-1.9,2.1-5.6,5.3-10.3,8.8c-7.4,5.6-30.5,17.1-64.8,21&#10;&#9;&#9;&#9;&#9;&#9;C490.1,235.4,468.2,237.3,444.5,237.6L444.5,237.6z M363.1,229.4c29,4.7,55.8,7.1,81.5,7.3c23.7-0.3,45.5-2.2,68.7-6&#10;&#9;&#9;&#9;&#9;&#9;c34.1-3.9,57-15.4,64.3-20.9c4.7-3.5,8.3-6.6,10.2-8.7c8.2-8.4,11.7-16.5,10.9-24.7c-1.2-11.3-6.8-15.3-11.7-15.3&#10;&#9;&#9;&#9;&#9;&#9;c-2,0-3.8,0.7-4.6,1.8c-0.3,0.4-0.6,1-0.4,1.8c0.3,0.9,0.9,1.5,1.8,1.5c0.9,0,1.9-0.5,2.8-1.4l0.2-0.2l0.3,0.1&#10;&#9;&#9;&#9;&#9;&#9;c2.8,0.8,4.9,2.6,5.9,5.1c1.3,3.4,0.5,7.7-2.3,12c-3.1,4.8-12,6.6-19.2,6.6c-0.8,0-1.6,0-2.3-0.1c-0.8-0.1-1.6-0.1-2.4-0.1&#10;&#9;&#9;&#9;&#9;&#9;c-14.5,0-21.1,9.2-28.2,19l-1.1,1.5c-0.6,0.9-1.1,1.7-1.6,2.6c-1.1,2-2.3,4.1-5.5,6.3c-28.8,12-62.7,14.8-85.7,15.8&#10;&#9;&#9;&#9;&#9;&#9;c-5,0.2-10.2,0.3-15.3,0.3c0,0,0,0,0,0C408.2,233.7,386.4,232.3,363.1,229.4z" style="fill: rgb(0, 0, 0); stroke: rgb(0, 0, 0); stroke-width: 0; fill-opacity: 1;"/>
			</g>
		</g>
		<g>
			<g>
				<g>
					<g>
						<path class="st3" d="M517.7,295l-1.6,1.3c-12.6-14.9-26.1-29.6-43.3-39.2c-17.1-9.6-36.8-13.3-56.2-15.7&#10;&#9;&#9;&#9;&#9;&#9;&#9;&#9;c-39-4.5-78.4-8.9-116.4-19.3c38.1,10,77.4,14.1,116.5,18.2c19.5,2.3,39.4,5.8,56.9,15.4C491.1,265.3,504.9,280.1,517.7,295z" style="fill: rgb(0, 0, 0); stroke: rgb(0, 0, 0); stroke-width: 0; fill-opacity: 1;"/>
						<path class="st4" d="M516,297l-0.3-0.4c-11.5-13.7-25.3-29.2-43.1-39.1c-17.3-9.7-37.2-13.3-56.1-15.7l-0.7-0.1&#10;&#9;&#9;&#9;&#9;&#9;&#9;&#9;c-38.3-4.4-77.9-8.9-115.7-19.2l0.2-0.9c37.8,9.9,77.4,14.1,115.7,18.1l0.8,0.1c19.2,2.3,39.3,5.7,57.1,15.4&#10;&#9;&#9;&#9;&#9;&#9;&#9;&#9;c18.3,9.9,32.4,25.5,44.3,39.3l0.3,0.4L516,297z M403.5,239.5c4.1,0.5,8.3,1,12.4,1.4l0.7,0.1c19,2.4,39,6,56.4,15.8&#10;&#9;&#9;&#9;&#9;&#9;&#9;&#9;c17.8,9.9,31.6,25.2,43.1,38.9l0.9-0.7c-11.7-13.7-25.7-29-43.7-38.7c-17.6-9.7-37.7-13.1-56.7-15.3l-0.7-0.1&#10;&#9;&#9;&#9;&#9;&#9;&#9;&#9;C411.8,240.4,407.6,239.9,403.5,239.5z" style="fill: rgb(0, 0, 0); stroke: rgb(0, 0, 0); stroke-width: 0; fill-opacity: 1;"/>
					</g>
				</g>
			</g>
		</g>
		<g>
			<g>
				<path class="st3" d="M359.2,237.6c18.4,2.2,36.8,4.3,55.1,7.1c18.1,3.2,36.9,5.3,53.8,13.6c14,6.6,26.7,18.2,31.9,33.2&#10;&#9;&#9;&#9;&#9;&#9;c2.4,7.2,4.5,22.2-8.7,36.7c-8.2,9.1-22.1,13.4-34.6,9.6c-6.2-1.8-11.9-5.4-16-10.2c-4.2-4.8-6.6-11-6.7-17.2&#10;&#9;&#9;&#9;&#9;&#9;c-0.6-12.3,7.9-24.3,19.3-26.5c11.2-2.4,23,4.8,25,15c2.3,10-5.3,20.2-14.2,20.3c-4.3,0.2-8.4-1.6-10.9-4.4&#10;&#9;&#9;&#9;&#9;&#9;c-2.7-2.8-3.5-6.8-2.8-10.1c0.7-3.3,2.8-6,5.4-7.3c2.6-1.3,5.5-1.1,7.6-0.1c4.5,2,5.3,6.6,4.4,8.7c-0.1,0.2-0.2,0.5-0.2,0.7&#10;&#9;&#9;&#9;&#9;&#9;c-0.3,0.7-0.7,1.5-1.4,2.2c-0.1,0.1-0.2,0.2-0.2,0.3c0,0,0.1-0.1,0.1-0.1c-0.8,0.8-1.9,1.4-3.5,1.7c-5,1.1,13.9,5.5,12.2-10.4&#10;&#9;&#9;&#9;&#9;&#9;c-1.8-9.1-11.7-15.8-21.7-13.5c-10.2,2-17.2,12.2-16.6,23.4c0.1,11.5,9.5,21.7,21,25c11.6,3.5,24.5-0.4,32.1-8.8&#10;&#9;&#9;&#9;&#9;&#9;c11.4-10.3,9.9-25.8,9.9-25.8c-1.9-18.6-15.7-33.2-32-41c-16.5-8.2-35.2-10.6-53.3-13.9c-18.2-3-36.6-5.2-55-7.7&#10;&#9;&#9;&#9;&#9;&#9;c-18.3-2.6-36.9-4.7-54.3-11.2C322.3,233.2,340.9,235.2,359.2,237.6z" style="fill: rgb(0, 0, 0); stroke: rgb(0, 0, 0); stroke-width: 0; fill-opacity: 1;"/>
				<path class="st4" d="M466.1,339.6c-3.3,0-6.5-0.5-9.6-1.4c-6.3-1.8-12.1-5.5-16.2-10.3c-4.2-4.8-6.7-11.1-6.8-17.5&#10;&#9;&#9;&#9;&#9;&#9;c-0.6-12.7,8.3-24.8,19.7-27c1.5-0.3,3-0.5,4.5-0.5c10.1,0,19.3,7,21,15.9c1.2,5.1-0.2,10.7-3.5,14.9c-2.9,3.7-7,5.9-11.2,5.9&#10;&#9;&#9;&#9;&#9;&#9;c-0.2,0-0.5,0-0.7,0c-4,0-8-1.7-10.6-4.6c-2.6-2.8-3.7-6.8-2.9-10.5c0.8-3.3,2.9-6.2,5.7-7.6c2.5-1.2,5.6-1.3,8-0.2&#10;&#9;&#9;&#9;&#9;&#9;c4.6,2,5.7,6.8,4.7,9.3c-0.1,0.2-0.2,0.5-0.3,0.7c-0.3,0.9-0.8,1.7-1.5,2.3l-0.2,0.2l0,0c-0.9,0.9-2.2,1.5-3.6,1.8&#10;&#9;&#9;&#9;&#9;&#9;c-0.1,0-0.2,0-0.2,0.1c0.5,0.2,1.4,0.4,2.7,0.4c1.4,0,4.8-0.3,7.1-2.8c1.8-1.9,2.4-4.8,2.1-8.5c-1.5-7.7-8.9-13.5-17.2-13.5&#10;&#9;&#9;&#9;&#9;&#9;c-1.3,0-2.7,0.2-4,0.5c-9.8,2-16.8,11.8-16.2,23c0.1,10.9,8.8,21.2,20.7,24.5c2.8,0.8,5.7,1.3,8.7,1.3c8.7,0,17.3-3.7,23-9.9&#10;&#9;&#9;&#9;&#9;&#9;c11.1-10.1,9.8-25.2,9.8-25.4c-1.7-16.7-13.6-31.9-31.8-40.7c-13.9-6.9-29.6-9.7-44.7-12.4c-2.8-0.5-5.7-1-8.5-1.5&#10;&#9;&#9;&#9;&#9;&#9;c-14.4-2.4-29.1-4.3-43.3-6.1c-3.9-0.5-7.7-1-11.6-1.5c-1.9-0.3-3.7-0.5-5.6-0.8c-16.3-2.3-33.1-4.6-48.8-10.5l0.3-0.9&#10;&#9;&#9;&#9;&#9;&#9;c15.6,5.7,32.4,7.8,48.6,9.9c1.9,0.2,3.7,0.5,5.6,0.7c3.9,0.5,7.7,0.9,11.6,1.4c14.3,1.7,29,3.5,43.5,5.7c2.9,0.5,5.8,1,8.6,1.5&#10;&#9;&#9;&#9;&#9;&#9;c15.2,2.5,31,5.2,45.3,12.1c15.6,7.4,27.3,19.6,32.2,33.5c2,6,5.3,21.8-8.8,37.1C485.4,335.4,475.9,339.6,466.1,339.6z&#10;&#9;&#9;&#9;&#9;&#9; M457.7,283.9c-1.5,0-2.9,0.2-4.3,0.5c-11,2.1-19.5,13.8-19,26c0.1,6.1,2.6,12.3,6.6,16.9c4.1,4.7,9.7,8.3,15.8,10&#10;&#9;&#9;&#9;&#9;&#9;c3,0.9,6.1,1.4,9.3,1.4c9.5,0,18.8-4,24.9-10.8c13.7-15,10.6-30.3,8.6-36.2c-4.7-13.7-16.3-25.7-31.7-33&#10;&#9;&#9;&#9;&#9;&#9;c-14.2-6.9-29.9-9.5-45.1-12.1c-2.9-0.5-5.8-1-8.6-1.5c-4-0.6-8.1-1.2-12.2-1.8c4.1,0.6,8.1,1.2,12.2,1.9c2.8,0.5,5.6,1,8.5,1.5&#10;&#9;&#9;&#9;&#9;&#9;c15.2,2.7,31,5.5,45,12.5c18.5,8.9,30.6,24.4,32.3,41.4c0,0.2,1.4,15.8-10,26.2c-5.8,6.4-14.7,10.2-23.7,10.2&#10;&#9;&#9;&#9;&#9;&#9;c-3.1,0-6.1-0.4-8.9-1.3c-12.3-3.4-21.2-14.1-21.3-25.4c-0.6-11.6,6.7-21.9,16.9-23.9c1.4-0.3,2.8-0.5,4.2-0.5&#10;&#9;&#9;&#9;&#9;&#9;c8.7,0,16.5,6.1,18.1,14.3c0.4,4-0.3,7.1-2.3,9.2c-2.5,2.8-6.3,3.1-7.8,3.1c-1.3,0-3.8-0.3-3.9-1.3c0-0.5,0.4-0.8,1.2-1&#10;&#9;&#9;&#9;&#9;&#9;c1.3-0.3,2.4-0.8,3.3-1.6l0,0l0.1-0.1c0.6-0.6,1-1.2,1.3-2c0.1-0.2,0.2-0.4,0.2-0.7c0.7-1.9,0.2-6.3-4.2-8.2&#10;&#9;&#9;&#9;&#9;&#9;c-2.2-1-4.9-1-7.2,0.1c-2.5,1.3-4.5,3.9-5.2,7c-0.7,3.4,0.3,7.1,2.7,9.6c2.6,2.8,6.6,4.5,10.6,4.3c3.9,0,7.7-2.1,10.4-5.6&#10;&#9;&#9;&#9;&#9;&#9;c3.2-4,4.4-9.3,3.3-14.2C476.2,290.6,467.4,283.9,457.7,283.9z" style="fill: rgb(0, 0, 0); stroke: rgb(0, 0, 0); stroke-width: 0; fill-opacity: 1;"/>
			</g>
		</g>
		<g>
			<g>
				<path class="st3" d="M497.1,278.7c0,0,16.8,28.3-2.5,50.3c-2.5,2.9-5,5.3-9.6,8.3c0,0-12.5,6.7-29,4.1&#10;&#9;&#9;&#9;&#9;&#9;c-17.2-2.7-36.6,4.4-36.9,17.2c0,0,0.5,10.4,11,8.1c0,0,5.9-1.8,4.9-8c0,0-4,6.3-8.3,2c-4.1-4.1,5.1-18.1,22.5-17.5&#10;&#9;&#9;&#9;&#9;&#9;c17.3,0.6,43.2,3.9,54.1-27C503.1,316.3,509.1,297.1,497.1,278.7z" style="fill: rgb(0, 0, 0); stroke: rgb(0, 0, 0); stroke-width: 0; fill-opacity: 1;"/>
				<path class="st4" d="M427,367.5c-8.1,0-8.6-8.8-8.6-8.9c0.1-5.3,3.5-10.1,9.5-13.5c5.5-3.1,13-4.8,20.5-4.8c2.5,0,5,0.2,7.5,0.6&#10;&#9;&#9;&#9;&#9;&#9;c2.5,0.4,5.1,0.6,7.7,0.6c12.3,0,20.9-4.6,21-4.6c4.8-3,7.1-5.5,9.5-8.2c18.9-21.6,2.7-49.5,2.5-49.8l0.8-0.5&#10;&#9;&#9;&#9;&#9;&#9;c12,18.4,6.2,37.8,6.1,38c-8.7,24.6-27.1,27.7-42.1,27.7c0,0,0,0,0,0c-3.2,0-6.2-0.1-9.1-0.3c-1.2-0.1-2.3-0.1-3.4-0.1&#10;&#9;&#9;&#9;&#9;&#9;c-12.6-0.5-20.3,6.8-22.3,11.7c-0.9,2.1-0.8,4,0.2,5c0.9,0.9,1.9,1.4,2.9,1.4c2.6,0,4.7-3.3,4.7-3.3l0.7-1.1l0.2,1.2&#10;&#9;&#9;&#9;&#9;&#9;c1,6.5-5.2,8.5-5.2,8.5C429,367.4,428,367.5,427,367.5z M448.5,341.3c-14.1,0-28.8,6.5-29.1,17.4c0,0.3,0.5,7.9,7.6,7.9&#10;&#9;&#9;&#9;&#9;&#9;c0.9,0,1.8-0.1,2.8-0.3c0.2-0.1,4.7-1.5,4.6-6.2c-0.9,1.1-2.7,2.7-4.8,2.7c-1.2,0-2.4-0.6-3.5-1.7c-1.3-1.3-1.5-3.5-0.4-6&#10;&#9;&#9;&#9;&#9;&#9;c2-4.9,9.6-12.3,22.1-12.3c0.4,0,0.8,0,1.1,0c1.1,0,2.2,0.1,3.4,0.1c17.5,0.8,40.2,1.8,50.3-26.8c0-0.1,0.7-2.2,1.1-5.8&#10;&#9;&#9;&#9;&#9;&#9;c-1,6.3-3.6,12.9-8.9,19c-2.3,2.6-4.8,5.3-9.7,8.4c-0.1,0.1-9,4.7-21.5,4.7c-2.6,0-5.3-0.2-7.8-0.6&#10;&#9;&#9;&#9;&#9;&#9;C453.4,341.5,451,341.3,448.5,341.3z" style="fill: rgb(0, 0, 0); stroke: rgb(0, 0, 0); stroke-width: 0; fill-opacity: 1;"/>
			</g>
		</g>
		<g>
			<g>
				<g>
					<g>
						<path class="st3" d="M526.2,260.6l3.2,2.7c-5,4.1-9.9,3.7-14.7,3.7c-4.8-0.2-9.4-1.2-13.9-2.5c-9-2.2-17.5-6.7-25.4-11.2&#10;&#9;&#9;&#9;&#9;&#9;&#9;&#9;c-15.9-9-34.3-12.2-52.5-14.1c18.2,1.2,36.9,3.7,53.5,12.3c8.2,4.2,16.3,8.1,25.2,10C509.9,263.5,520.7,264.8,526.2,260.6z" style="fill: rgb(0, 0, 0); stroke: rgb(0, 0, 0); stroke-width: 0; fill-opacity: 1;"/>
						<path class="st4" d="M514.8,267.5L514.8,267.5c-4.2-0.2-8.6-1-14-2.5c-9.3-2.3-18-7-25.5-11.2c-16.4-9.3-35.7-12.3-52.3-14.1&#10;&#9;&#9;&#9;&#9;&#9;&#9;&#9;l0.1-0.9c16.9,1.1,36.5,3.5,53.6,12.3c8.1,4.2,16.1,8.1,25.1,9.9c3.5,0.8,8.6,1.8,13.6,1.8h0c4.7,0,8.3-0.9,10.6-2.7l0.3-0.2&#10;&#9;&#9;&#9;&#9;&#9;&#9;&#9;l4,3.3l-0.4,0.4c-4.3,3.5-8.5,3.8-13.2,3.8l-1.1,0L514.8,267.5z M447.4,242.6c9.7,2.2,19.5,5.4,28.4,10.4&#10;&#9;&#9;&#9;&#9;&#9;&#9;&#9;c7.4,4.2,16,8.9,25.3,11.1c5.3,1.5,9.7,2.3,13.8,2.5l1.3,0l0.6,0c4.3,0,8.2-0.3,12.1-3.3l-2.5-2.1c-2.5,1.7-6.2,2.6-10.9,2.6&#10;&#9;&#9;&#9;&#9;&#9;&#9;&#9;c0,0,0,0,0,0c-5,0-10.3-1-13.8-1.9c-9.1-1.9-17.5-6-25.3-10C467.1,247.2,457.2,244.4,447.4,242.6z" style="fill: rgb(0, 0, 0); stroke: rgb(0, 0, 0); stroke-width: 0; fill-opacity: 1;"/>
					</g>
				</g>
			</g>
		</g>
		<g>
			<g>
				<path class="st3" d="M473,152.2c16,13.2,3.5,25.2-0.2,21.1c-1.5-1.6-0.6-3.9,2.8-4.7c1.9-5.8-2.1-11.7-11.9-11.8&#10;&#9;&#9;&#9;&#9;&#9;c-6.8-0.1-14.2,9.4-16.9,14.2c-13.5,23.6-37.9,9.6-57.1,20.2c0,0-14.4,7.7-31.2,13.6c-23.2,8.3-49.2,10.7-72.8,3.4&#10;&#9;&#9;&#9;&#9;&#9;c24,5.9,49.1,1.7,71.4-7.3c10.6-4.4,20.9-9.7,30.7-15.8c6-4.6,9.1-8.9,12.7-12.8c13.6-14.6,25.3-19.8,31.7-22.1&#10;&#9;&#9;&#9;&#9;&#9;c4.9-1.8,10.4-3,13.6-3.4C452.8,145.4,464.4,145.1,473,152.2z" style="fill: rgb(0, 0, 0); stroke: rgb(0, 0, 0); stroke-width: 0; fill-opacity: 1;"/>
				<path class="st4" d="M315.4,213c-10.5,0-20.5-1.5-29.9-4.4l0.3-0.9c7.3,1.8,15,2.7,23,2.7c0,0,0,0,0,0&#10;&#9;&#9;&#9;&#9;&#9;c15.4,0,31.6-3.4,48.1-10.1c10.4-4.2,20.7-9.6,30.7-15.8c4.5-3.4,7.3-6.7,10-9.8c0.9-1,1.7-2,2.6-2.9&#10;&#9;&#9;&#9;&#9;&#9;c10.1-10.9,20.5-18.2,31.9-22.2c4.9-1.8,10.4-3,13.7-3.5c2.6-0.5,5.3-0.7,8-0.7c5.5,0,13.3,1.1,19.7,6.3&#10;&#9;&#9;&#9;&#9;&#9;c9.6,7.9,8.5,14.8,7.5,17.4c-1.1,3.1-3.7,5.4-6.1,5.4c-0.9,0-1.7-0.3-2.3-1c-0.7-0.8-1-1.8-0.7-2.8c0.4-1.2,1.6-2.1,3.4-2.6&#10;&#9;&#9;&#9;&#9;&#9;c0.7-2.4,0.4-4.7-1-6.7c-1.9-2.7-5.7-4.3-10.6-4.3c-7,0-14.3,10.1-16.5,13.9c-8.3,14.5-20.5,15.1-33.4,15.6&#10;&#9;&#9;&#9;&#9;&#9;c-8.1,0.3-16.5,0.7-23.9,4.8l-0.1,0.1c0,0-0.1,0.1-0.2,0.1c-4.7,2.4-17.1,8.6-30.9,13.5C344.1,210.4,329.6,213,315.4,213z&#10;&#9;&#9;&#9;&#9;&#9; M301.1,211.1c4.7,0.6,9.5,1,14.4,1c14.1,0,28.5-2.6,42.9-7.7c13.8-4.9,26.2-11.1,30.8-13.5c0.1-0.1,0.2-0.1,0.3-0.1l0,0&#10;&#9;&#9;&#9;&#9;&#9;c7.7-4.2,16.1-4.6,24.4-4.9c12.6-0.5,24.6-1,32.6-15.1c2.3-4,9.8-14.4,17.2-14.4c5.3,0.1,9.3,1.7,11.4,4.7c1.6,2.2,2,5,1,7.7&#10;&#9;&#9;&#9;&#9;&#9;L476,169l-0.3,0.1c-1.6,0.4-2.7,1.1-3,2c-0.2,0.6,0,1.3,0.5,1.9c0.4,0.5,0.9,0.7,1.6,0.7c1.7,0,4.1-1.7,5.2-4.8&#10;&#9;&#9;&#9;&#9;&#9;c0.9-2.4,1.9-8.8-7.2-16.3c-6.2-5.1-13.8-6.1-19.1-6.1c-2.6,0-5.3,0.3-7.8,0.7c-3.2,0.5-8.6,1.7-13.5,3.4&#10;&#9;&#9;&#9;&#9;&#9;c-11.2,4-21.5,11.2-31.5,22c-0.9,1-1.7,1.9-2.6,2.9c-2.8,3.2-5.6,6.4-10.2,9.9c-10,6.3-20.4,11.6-30.8,15.9&#10;&#9;&#9;&#9;&#9;&#9;c-16.6,6.7-32.9,10.1-48.4,10.1c0,0,0,0,0,0C306.2,211.4,303.6,211.3,301.1,211.1z" style="fill: rgb(0, 0, 0); stroke: rgb(0, 0, 0); stroke-width: 0; fill-opacity: 1;"/>
			</g>
		</g>
		<g>
			<g>
				<path class="st3" d="M368.6,311.8c2.1,6.7,3.2,13.8,4.2,20.9c2,15.6,3.3,24.2,6.3,32.3c11.1,21.3,29.5,11.5,33.1,45.2&#10;&#9;&#9;&#9;&#9;&#9;c0.6,2.5,1.7,4.2,3.1,5.5c7.9,5.9,16.5,3.4,16.7,3.4c-7.2,2-13.6,0.1-18.2-2.2c-2.3-1.1-5.1-2.8-8.3-5.3&#10;&#9;&#9;&#9;&#9;&#9;c-5.8-4.5-22.2-18.7-30-40.5c-2.8-5.9-3.7-12.3-4.5-18.3c-1.6-13.7-2.6-27.1-5.5-40.4c-5.1-26.5-18.6-51.6-39.6-69.3&#10;&#9;&#9;&#9;&#9;&#9;C347.5,260.1,362.3,285,368.6,311.8z" style="fill: rgb(0, 0, 0); stroke: rgb(0, 0, 0); stroke-width: 0; fill-opacity: 1;"/>
				<path class="st4" d="M425.7,420.5c-4.1,0-8.2-1.1-12.2-3.2c-2.7-1.3-5.5-3.1-8.4-5.3c-6.5-5.1-22.5-19.4-30.1-40.7&#10;&#9;&#9;&#9;&#9;&#9;c-2.8-5.8-3.7-12.3-4.5-18.1l0-0.2c-0.4-3.5-0.8-7-1.2-10.4c-1.1-9.9-2.2-20.1-4.3-29.9c-5.3-27.5-19.3-52-39.4-69l0.6-0.7&#10;&#9;&#9;&#9;&#9;&#9;c21.1,16.5,36.3,40.9,42.8,68.8c2.1,6.8,3.2,14.1,4.2,20.9c2,15.6,3.2,24.1,6.2,32.2c4.4,8.4,10,11.9,15.3,15.2&#10;&#9;&#9;&#9;&#9;&#9;c8,5,15.6,9.7,17.8,30.1c0.5,2.1,1.5,3.8,2.9,5.2c4.2,3.1,8.7,3.8,11.7,3.8h0c2.1,0,3.6-0.3,4.3-0.4c0.2,0,0.4-0.1,0.4-0.1&#10;&#9;&#9;&#9;&#9;&#9;l0.2,0l1.4,0.5l-1.5,0.4C430,420.2,427.8,420.5,425.7,420.5z M342.6,260.1c11.5,14.9,19.6,32.9,23.3,52.3&#10;&#9;&#9;&#9;&#9;&#9;c2.1,9.9,3.2,20.1,4.3,30c0.4,3.4,0.8,6.9,1.2,10.4l0,0.2c0.8,5.7,1.7,12.1,4.4,17.9c7.5,21.1,23.4,35.2,29.8,40.3&#10;&#9;&#9;&#9;&#9;&#9;c2.8,2.2,5.6,4,8.2,5.2c2,1,3.9,1.8,5.9,2.3c-1.6-0.6-3.3-1.5-4.9-2.7c-1.7-1.6-2.8-3.5-3.3-5.8c-2.2-20-9.5-24.6-17.4-29.5&#10;&#9;&#9;&#9;&#9;&#9;c-5.5-3.4-11.2-7-15.7-15.6c-3.1-8.2-4.3-17.2-6.3-32.4c-0.9-6.8-2.1-14.1-4.1-20.8C363.6,292.4,354.7,274.6,342.6,260.1z" style="fill: rgb(0, 0, 0); stroke: rgb(0, 0, 0); stroke-width: 0; fill-opacity: 1;"/>
			</g>
		</g>
		<g>
			<g>
				<g>
					<g>
						<path class="st3" d="M289.4,213.8c-0.1,0,19.8,6,40.9,4.3c21.1-1,41.5-8.8,43.1-9.6c3.4-1.4,5.6-3.8,4.9-4.9&#10;&#9;&#9;&#9;&#9;&#9;&#9;&#9;c-0.6-1.1-3.6-0.8-6.8,0.6c-1.5,0.8-20.8,9.5-41.5,11.6C309.5,218.6,289.3,213.8,289.4,213.8z" style="fill: rgb(0, 0, 0); stroke: rgb(0, 0, 0); stroke-width: 0; fill-opacity: 1;"/>
						<path class="st4" d="M322.4,218.8c-9.3,0-17.8-1.2-23.3-2.3c-3.2-0.6-5.6-1.2-7.2-1.6c-1.6-0.4-2.3-0.6-2.7-0.7&#10;&#9;&#9;&#9;&#9;&#9;&#9;&#9;c-0.1-0.1-0.2-0.1-0.2-0.2c0-0.1-0.1-0.1-0.1-0.2l0.5-0.1l0.2-0.4c0.9,0.3,12.6,2.8,26.5,2.8c4.9,0,9.6-0.3,14-0.9&#10;&#9;&#9;&#9;&#9;&#9;&#9;&#9;c21.5-2.2,41.1-11.5,41.3-11.6c2-0.8,3.9-1.3,5.2-1.3c1.1,0,1.8,0.3,2.2,0.9c0.1,0.3,0.3,0.7,0.1,1.3&#10;&#9;&#9;&#9;&#9;&#9;&#9;&#9;c-0.5,1.4-2.6,3.2-5.2,4.3c-1.6,0.8-22.1,8.7-43.3,9.7C327.8,218.7,325.1,218.8,322.4,218.8z M305.6,216.6&#10;&#9;&#9;&#9;&#9;&#9;&#9;&#9;c5,0.7,10.7,1.2,16.8,1.2c2.7,0,5.3-0.1,7.9-0.3c21-1,41.3-8.7,42.9-9.6c2.7-1.1,4.4-2.7,4.7-3.7c0.1-0.2,0.1-0.4,0-0.5&#10;&#9;&#9;&#9;&#9;&#9;&#9;&#9;c-0.1-0.3-0.6-0.4-1.4-0.4c-1.2,0-3,0.4-4.8,1.2c-0.1,0.1-20,9.4-41.6,11.6c-4.4,0.6-9.1,0.9-14.1,0.9&#10;&#9;&#9;&#9;&#9;&#9;&#9;&#9;C312.3,217.1,308.7,216.9,305.6,216.6z" style="fill: rgb(0, 0, 0); stroke: rgb(0, 0, 0); stroke-width: 0; fill-opacity: 1;"/>
					</g>
				</g>
			</g>
		</g>
		<g>
			<g>
				<g>
					<g>
						<path class="st3" d="M322.2,221.7c0-0.1,17.9,1.8,36.3,0.1c18.5-1.1,36.9-8.2,38.2-9.5c3-1.6,4.4-4.6,3.1-6.1&#10;&#9;&#9;&#9;&#9;&#9;&#9;&#9;c-1.2-1.5-3.9-1.4-6.5-0.1c-1,1-17.3,9.3-35.4,12.1C340.2,221.7,322.1,221.6,322.2,221.7z" style="fill: rgb(0, 0, 0); stroke: rgb(0, 0, 0); stroke-width: 0; fill-opacity: 1;"/>
						<path class="st4" d="M342,223c-8.8,0-16-0.5-18.6-0.7c-0.6,0-1-0.1-1.1-0.1l0-0.4l-0.4-0.3c0,0,0.1-0.1,0.1-0.1l0.1-0.1l0.2,0&#10;&#9;&#9;&#9;&#9;&#9;&#9;&#9;c0,0,0,0,0,0c0.2,0,0.5,0,1.1,0c12.9-0.3,24.6-1.4,34.6-3.3c18.2-2.9,34.2-11.2,35.1-12l0.1-0.1c1.3-0.7,2.7-1.1,3.9-1.1&#10;&#9;&#9;&#9;&#9;&#9;&#9;&#9;c1.3,0,2.4,0.4,3.1,1.3c0.5,0.6,0.7,1.4,0.5,2.3c-0.3,1.7-1.8,3.4-3.7,4.5c-1.7,1.3-20,8.4-38.4,9.5&#10;&#9;&#9;&#9;&#9;&#9;&#9;&#9;C353.4,222.8,347.9,223,342,223z M331.7,221.8c3,0.1,6.5,0.2,10.3,0.2c5.8,0,11.4-0.2,16.5-0.7c18.5-1.1,36.7-8.2,37.9-9.3&#10;&#9;&#9;&#9;&#9;&#9;&#9;&#9;l0.1-0.1c1.7-0.9,3-2.4,3.3-3.8c0.1-0.4,0.1-1.1-0.3-1.5c-0.7-0.8-1.7-0.9-2.4-0.9c-1.1,0-2.3,0.3-3.5,1&#10;&#9;&#9;&#9;&#9;&#9;&#9;&#9;c-1.6,1.4-18.2,9.4-35.5,12.2C350.2,220.3,341.4,221.3,331.7,221.8z" style="fill: rgb(0, 0, 0); stroke: rgb(0, 0, 0); stroke-width: 0; fill-opacity: 1;"/>
					</g>
				</g>
			</g>
		</g>
		<g>
			<g>
				<g>
					<g>
						<path class="st3" d="M315.5,406.3c0-0.1-10.3,6-22.2,7.2c-11.8,1.7-23.7-1.4-24.5-1.7c-1.9-0.5-3.6-0.5-3.8,0.1&#10;&#9;&#9;&#9;&#9;&#9;&#9;&#9;c-0.2,0.6,1.2,1.7,3.3,2.2c0.9,0.3,13.4,2.9,25.3,0.6C305.5,412.9,315.5,406.2,315.5,406.3z" style="fill: rgb(0, 0, 0); stroke: rgb(0, 0, 0); stroke-width: 0; fill-opacity: 1;"/>
						<path class="st4" d="M282.8,416.1L282.8,416.1c-7.6,0-14-1.3-14.7-1.6c-1.6-0.4-3.1-1.2-3.5-2c-0.2-0.3-0.1-0.6-0.1-0.8&#10;&#9;&#9;&#9;&#9;&#9;&#9;&#9;c0.2-0.5,0.8-0.8,1.8-0.8c0.7,0,1.6,0.1,2.6,0.4c0.9,0.3,8.3,2.2,17,2.2c2.6,0,5.1-0.2,7.4-0.5c4.7-0.5,12.2-2,21.5-6.9&#10;&#9;&#9;&#9;&#9;&#9;&#9;&#9;c0.3-0.1,0.4-0.2,0.5-0.3c0,0,0,0,0,0l0.2,0l0.2,0l0.1,0.1l-0.4,0.3l0.1,0.4c0,0-0.2,0.1-0.4,0.3c-9.2,5.4-16.8,7.4-21.6,8.1&#10;&#9;&#9;&#9;&#9;&#9;&#9;&#9;C290.2,415.8,286.6,416.1,282.8,416.1z M266.3,411.9c-0.8,0-0.9,0.2-0.9,0.2c0,0.2,1.1,1.1,3,1.5c0.5,0.2,6.5,1.5,14.5,1.5&#10;&#9;&#9;&#9;&#9;&#9;&#9;&#9;c3.8,0,7.4-0.3,10.6-1c1.3-0.2,2.9-0.5,4.6-0.9c-1.8,0.4-3.3,0.6-4.7,0.7c-2.3,0.3-4.9,0.5-7.5,0.5c-8.8,0-16.4-1.9-17.3-2.2&#10;&#9;&#9;&#9;&#9;&#9;&#9;&#9;C267.7,412,266.9,411.9,266.3,411.9z" style="fill: rgb(0, 0, 0); stroke: rgb(0, 0, 0); stroke-width: 0; fill-opacity: 1;"/>
					</g>
				</g>
			</g>
		</g>
		<g>
			<g>
				<g>
					<g>
						<path class="st3" d="M320.1,412.2c0-0.1-1.9,3.3-2.2,7.3c-0.5,3.9-0.1,7.9-0.1,8.2c0.1,0.7,0.7,1.1,1.4,1c0.6-0.1,1-0.7,1-1.4&#10;&#9;&#9;&#9;&#9;&#9;&#9;&#9;c0-0.3-1-4.1-1.1-7.8C318.8,415.8,320.1,412.2,320.1,412.2z" style="fill: rgb(0, 0, 0); stroke: rgb(0, 0, 0); stroke-width: 0; fill-opacity: 1;"/>
						<path class="st4" d="M319,429.3c-0.8,0-1.5-0.6-1.6-1.4c-0.1-0.4-0.4-4.5,0.1-8.4c0.2-2.5,1.4-6.2,2.2-7.4&#10;&#9;&#9;&#9;&#9;&#9;&#9;&#9;c0-0.1,0.1-0.2,0.1-0.2l0.1-0.1l0.2,0c0,0,0,0,0,0h0.2l0.7,0.9l-0.7,0c-0.3,0.8-1.1,3.8-0.9,6.8c0.1,3.2,0.8,6.4,1,7.4&#10;&#9;&#9;&#9;&#9;&#9;&#9;&#9;c0,0.2,0.1,0.3,0.1,0.4c0.1,0.9-0.4,1.7-1.3,1.9C319.2,429.2,319.1,429.3,319,429.3z M318.6,418c-0.1,0.5-0.2,1-0.2,1.5&#10;&#9;&#9;&#9;&#9;&#9;&#9;&#9;c-0.5,3.8-0.1,7.8-0.1,8.1c0.1,0.4,0.4,0.7,0.8,0.6c0.4-0.1,0.6-0.4,0.6-0.8c0,0,0-0.1-0.1-0.3c-0.2-1.1-0.9-4.3-1-7.6&#10;&#9;&#9;&#9;&#9;&#9;&#9;&#9;C318.6,419.1,318.6,418.6,318.6,418z" style="fill: rgb(0, 0, 0); stroke: rgb(0, 0, 0); stroke-width: 0; fill-opacity: 1;"/>
					</g>
				</g>
			</g>
		</g>
		<g>
			<g>
				<g>
					<g>
						<path d="M 397.299988 47.599998 H 397.299988 V 47.599998 H 397.299988 V 47.599998 Z" class="st3" style="fill: rgb(0, 0, 0); stroke: rgb(0, 0, 0); stroke-width: 0; fill-opacity: 1;"/>
					</g>
				</g>
			</g>
		</g>
		<g>
			<g>
				<g>
					<g>
						<path class="st3" d="M413,122.5c0.1,0.2,4.7-17.1,0.9-34.8c-3-18-16.2-32.3-17.3-33.1c-2.2-2.2-4.7-3.2-5.3-2.5&#10;&#9;&#9;&#9;&#9;&#9;&#9;&#9;c-0.6,0.8,0.7,2.9,2.8,5c1.1,0.7,14.2,13.6,18.1,31C416.8,105.2,413.1,122.7,413,122.5z" style="fill: rgb(0, 0, 0); stroke: rgb(0, 0, 0); stroke-width: 0; fill-opacity: 1;"/>
						<path class="st4" d="M413,123h-0.3l-0.1-0.2l0.4-0.3l-0.4-0.2c0.4-1.1,3.5-18-0.9-34c-4-18.2-17.8-30.7-17.9-30.8&#10;&#9;&#9;&#9;&#9;&#9;&#9;&#9;c-1.3-1.3-4-4.3-2.9-5.7c0.2-0.2,0.4-0.4,1-0.4c1.3,0,3.3,1.1,5,2.9c1,0.7,14.4,15.1,17.4,33.4c3.7,16.9-0.4,33.9-0.9,35&#10;&#9;&#9;&#9;&#9;&#9;&#9;&#9;c0,0,0,0,0,0l-0.1,0.3L413,123v-0.1V123z M391.9,52.4c-0.2,0-0.2,0-0.3,0.1c-0.2,0.3,0.3,1.9,2.7,4.3&#10;&#9;&#9;&#9;&#9;&#9;&#9;&#9;c1.5,1.1,14.4,14.1,18.2,31.2c1.5,5.5,2.1,11,2.3,16.1c0.1-5-0.3-10.6-1.5-16.2c-3-18-16.1-32.1-17.1-32.8&#10;&#9;&#9;&#9;&#9;&#9;&#9;&#9;C394.5,53.3,392.7,52.4,391.9,52.4z" style="fill: rgb(0, 0, 0); stroke: rgb(0, 0, 0); stroke-width: 0; fill-opacity: 1;"/>
					</g>
				</g>
			</g>
		</g>
		<g>
			<g>
				<g>
					<g>
						<path class="st3" d="M69.4,232.5c0.1,0.2,5.3-7.1,16-15c10.6-7.9,26.6-15.4,43.7-20.3c17.1-5.3,34.7-7.9,48.7-12.6&#10;&#9;&#9;&#9;&#9;&#9;&#9;&#9;c13.8-4.5,22.6-11.4,23.8-12.5c5.3-4.4,6.7-11.1,4.1-12c-2.4-0.9-5.9,1.4-10.2,4.9c-1,0.9-7.8,7.1-20.5,12.2&#10;&#9;&#9;&#9;&#9;&#9;&#9;&#9;c-12.4,5-30.5,9.1-47.4,15.5c-17,6.1-33,14.9-43.1,23.6C74.2,225,69.6,232.6,69.4,232.5z" style="fill: rgb(0, 0, 0); stroke: rgb(0, 0, 0); stroke-width: 0; fill-opacity: 1;"/>
						<path class="st4" d="M69.4,233h-0.2l-0.1-0.2l0.4-0.3l-0.3-0.3c0.1-0.1,0.3-0.4,0.6-0.7c1.6-2.1,6.3-8.5,14.5-15.4&#10;&#9;&#9;&#9;&#9;&#9;&#9;&#9;c10.2-8.8,26.4-17.6,43.3-23.7c8.5-3.2,17.2-5.8,25.5-8.3c8.1-2.4,15.7-4.7,21.8-7.2c11.1-4.5,17.9-9.9,20.3-12.1l0.1-0.1&#10;&#9;&#9;&#9;&#9;&#9;&#9;&#9;c4.4-3.7,7.2-5.2,9.4-5.2c0.5,0,0.9,0.1,1.3,0.2c0.8,0.3,1.3,1,1.5,2.1c0.4,2.7-1.3,7.3-5.5,10.7c-1.6,1.5-10.5,8.2-23.9,12.6&#10;&#9;&#9;&#9;&#9;&#9;&#9;&#9;c-7.1,2.4-15.1,4.2-23.6,6.1c-8.2,1.9-16.7,3.8-25.1,6.4c-17,4.9-32.9,12.3-43.6,20.2c-8.5,6.2-13.5,12.2-15.2,14.1&#10;&#9;&#9;&#9;&#9;&#9;&#9;&#9;c-0.4,0.5-0.6,0.7-0.7,0.8C69.7,232.9,69.6,233,69.4,233C69.5,233,69.5,233,69.4,233z M204.5,160.4c-2.4,0-5.9,2.7-8.8,5&#10;&#9;&#9;&#9;&#9;&#9;&#9;&#9;l-0.1,0.1c-2.4,2.2-9.3,7.7-20.5,12.2c-6.2,2.5-13.8,4.8-21.9,7.2c-8.4,2.5-17,5.1-25.5,8.3c-16.8,6-32.8,14.8-43,23.5&#10;&#9;&#9;&#9;&#9;&#9;&#9;&#9;c-2.2,1.9-4.2,3.7-5.9,5.4c1.8-1.6,3.9-3.3,6.2-5c10.7-8,26.7-15.5,43.8-20.4c8.4-2.6,16.9-4.5,25.1-6.4&#10;&#9;&#9;&#9;&#9;&#9;&#9;&#9;c8.5-1.9,16.4-3.8,23.5-6.1c13.2-4.3,22-10.9,23.6-12.4c3.8-3.1,5.6-7.4,5.1-9.9c-0.1-0.5-0.3-1.2-0.9-1.4&#10;&#9;&#9;&#9;&#9;&#9;&#9;&#9;C205.2,160.4,204.9,160.4,204.5,160.4z" style="fill: rgb(0, 0, 0); stroke: rgb(0, 0, 0); stroke-width: 0; fill-opacity: 1;"/>
					</g>
				</g>
			</g>
		</g>
		<g>
			<g>
				<g>
					<g>
						<path class="st3" d="M77.1,218.1c-0.2-0.2,13.4-13.1,30.7-20.6c17-8.1,35.7-12.5,37.2-12.9c3.1-0.8,5.4-2.4,5.1-3.7&#10;&#9;&#9;&#9;&#9;&#9;&#9;&#9;c-0.3-1.3-3.1-1.7-6.3-0.8c-1.6,0.4-20.4,6-37,15.3C89.6,204.2,76.8,218,77.1,218.1z" style="fill: rgb(0, 0, 0); stroke: rgb(0, 0, 0); stroke-width: 0; fill-opacity: 1;"/>
						<path class="st4" d="M76.9,218.6l-0.3-0.2l0-0.3c0-0.1,0.1-0.2,0.2-0.3c1.6-2.3,14.3-14.8,29.8-22.7&#10;&#9;&#9;&#9;&#9;&#9;&#9;&#9;c17.7-9.8,37-15.3,37.1-15.3c1.1-0.3,2.3-0.5,3.3-0.5c2,0,3.4,0.6,3.6,1.7c0.4,1.8-2.5,3.4-5.4,4.2l-0.3,0.1&#10;&#9;&#9;&#9;&#9;&#9;&#9;&#9;c-6.2,1.5-22.2,5.8-36.8,12.7c-16.9,7.3-30.1,19.7-30.5,20.4l-0.3-0.2l0,0L76.9,218.6z M146.9,180.2c-0.9,0-2,0.1-3,0.4&#10;&#9;&#9;&#9;&#9;&#9;&#9;&#9;c-0.2,0-19.3,5.5-36.9,15.3c-7.5,3.8-14,8.5-19,12.6c5.4-3.9,12.3-8.1,19.6-11.3c14.6-7,30.7-11.3,36.9-12.8l0.3-0.1&#10;&#9;&#9;&#9;&#9;&#9;&#9;&#9;c3.1-0.8,4.9-2.3,4.7-3.1C149.5,180.7,148.6,180.2,146.9,180.2z" style="fill: rgb(0, 0, 0); stroke: rgb(0, 0, 0); stroke-width: 0; fill-opacity: 1;"/>
					</g>
				</g>
			</g>
		</g>
	</g>
</svg>