<?xml version="1.0" encoding="UTF-8" standalone="no"?>
<!-- Created with Inkscape (http://www.inkscape.org/) -->

<svg
   xmlns:dc="http://purl.org/dc/elements/1.1/"
   xmlns:cc="http://creativecommons.org/ns#"
   xmlns:rdf="http://www.w3.org/1999/02/22-rdf-syntax-ns#"
   xmlns:svg="http://www.w3.org/2000/svg"
   xmlns="http://www.w3.org/2000/svg"
   xmlns:sodipodi="http://sodipodi.sourceforge.net/DTD/sodipodi-0.dtd"
   xmlns:inkscape="http://www.inkscape.org/namespaces/inkscape"
   width="76.206573mm"
   height="99.779617mm"
   viewBox="0 0 76.206573 99.779617"
   version="1.1"
   id="svg8"
   inkscape:version="0.92.2 (5c3e80d, 2017-08-06)"
   sodipodi:docname="unknown.svg">
  <defs
     id="defs2" />
  <sodipodi:namedview
     id="base"
     pagecolor="#ffffff"
     bordercolor="#666666"
     borderopacity="1.0"
     inkscape:pageopacity="0.0"
     inkscape:pageshadow="2"
     inkscape:zoom="1.4"
     inkscape:cx="59.092469"
     inkscape:cy="198.64754"
     inkscape:document-units="mm"
     inkscape:current-layer="layer1"
     showgrid="false"
     fit-margin-top="0"
     fit-margin-left="0"
     fit-margin-right="0"
     fit-margin-bottom="0"
     inkscape:window-width="1920"
     inkscape:window-height="1027"
     inkscape:window-x="-8"
     inkscape:window-y="163"
     inkscape:window-maximized="1" />
  <metadata
     id="metadata5">
    <rdf:RDF>
      <cc:Work
         rdf:about="">
        <dc:format>image/svg+xml</dc:format>
        <dc:type
           rdf:resource="http://purl.org/dc/dcmitype/StillImage" />
        <dc:title></dc:title>
      </cc:Work>
    </rdf:RDF>
  </metadata>
  <g
     inkscape:label="Layer 1"
     inkscape:groupmode="layer"
     id="layer1"
     transform="translate(-51.171396,-141.11568)">
    <path
       style="fill:#000000;stroke-width:0.35277778"
       d="m 64.015281,240.27836 c 0.10167,-0.33955 0.365482,-1.68141 0.586249,-2.98193 0.351305,-2.0695 0.309877,-2.75437 -0.331986,-5.48835 -0.728469,-3.10288 -0.72887,-3.13957 -0.05991,-5.47881 0.37041,-1.29525 0.866835,-3.55366 1.103168,-5.01867 0.416271,-2.58045 0.404533,-2.69045 -0.375726,-3.521 -0.754166,-0.80277 -0.790035,-1.04695 -0.56365,-3.83702 0.235469,-2.90203 -0.192147,-6.92029 -0.849664,-7.98417 -0.238796,-0.38638 -0.731744,-0.0931 -2.238643,1.33211 -3.368674,3.18596 -5.59037,3.63424 -7.992769,1.61275 -2.145194,-1.80506 -2.16556,-1.91501 -2.10636,-11.37216 0.01541,-2.4625 0.557868,-4.84334 1.366679,-5.99838 0.353495,-0.50481 0.965941,-1.82691 1.360991,-2.93799 0.39505,-1.11108 1.41941,-3.01608 2.276356,-4.23333 0.856947,-1.21726 1.970642,-2.92756 2.47488,-3.80069 0.504237,-0.87313 1.399237,-2.04613 1.988889,-2.60667 0.912712,-0.86766 1.26549,-0.98779 2.372988,-0.80807 0.715492,0.11611 2.017201,0.0195 2.892686,-0.21463 2.258445,-0.60404 3.114489,-2.0472 3.363749,-5.67074 0.154942,-2.25243 0.344528,-2.93832 1.008753,-3.6495 1.020469,-1.0926 2.408184,-1.83101 3.291501,-1.75143 0.907012,0.0817 1.019477,-0.71218 0.52021,-3.67218 l -0.415769,-2.46495 -2.60996,-1.76119 c -1.435478,-0.96865 -2.885043,-2.18101 -3.221255,-2.69413 -0.938662,-1.43258 -0.796608,-3.44898 0.321767,-4.56735 0.802152,-0.80216 1.310157,-0.95727 3.620813,-1.10556 2.283938,-0.14657 2.745297,-0.28465 3.070775,-0.91902 0.210663,-0.41059 0.790734,-1.18365 1.289047,-1.7179 0.498313,-0.53426 1.312354,-1.72488 1.808979,-2.64584 1.080724,-2.00412 2.667374,-2.89947 5.588624,-3.15367 1.706243,-0.14847 2.370503,-0.0156 4.310163,0.86214 2.7263,1.23371 3.01178,1.54376 3.32922,3.61568 0.13377,0.87313 0.59559,2.69875 1.02627,4.05695 l 0.78304,2.46944 2.51022,0.88195 c 3.1091,1.09236 3.99292,1.84605 3.99292,3.40505 0,1.51371 -2.02254,3.8504 -3.63559,4.20027 -1.25464,0.27214 -1.64267,0.68742 -1.65067,1.76657 -0.003,0.40087 -0.58273,1.23996 -1.28834,1.86467 l -1.28294,1.13583 0.18023,3.161 c 0.0991,1.73855 0.37165,3.39164 0.6056,3.67354 0.23396,0.28189 1.00799,0.70065 1.72007,0.93056 0.71208,0.22992 1.92128,0.87304 2.68711,1.42916 0.90897,0.66007 1.8276,1.01184 2.64583,1.01317 2.847604,0.005 5.540514,0.75141 9.397234,2.60594 4.44569,2.13774 4.63186,2.33455 6.54252,6.91702 1.79763,4.31136 6.85631,14.66272 9.49379,19.42674 1.35003,2.43853 2.4546,4.77457 2.4546,5.1912 0,1.04978 -1.78078,2.97528 -3.68681,3.98643 -0.87696,0.46522 -1.67687,1.06058 -1.77758,1.32302 -0.10071,0.26244 -0.0172,1.51599 0.18568,2.78568 0.63389,3.96794 -0.0523,10.13301 -1.6374,14.71104 -0.46559,1.34472 -1.02228,3.45416 -1.23708,4.68765 -0.2148,1.23348 -0.59658,2.44873 -0.8484,2.70055 -0.49528,0.49528 -20.527264,0.92529 -43.145101,0.92615 -10.693308,3.5e-4 -11.389383,-0.0379 -11.216,-0.61693 z m 48.145499,-5.83185 c 0.51199,-2.68949 0.29226,-18.06072 -0.28422,-19.88255 -0.59932,-1.89405 -1.95122,-3.60842 -2.45642,-3.11505 -0.25983,0.25375 -0.17324,1.20876 0.28786,3.175 1.01941,4.34697 1.27562,11.33976 0.55846,15.24214 -0.43831,2.38504 -0.49058,3.3837 -0.20505,3.91721 0.21077,0.39385 0.38851,1.48058 0.39497,2.41497 l 0.0117,1.69888 0.6711,-0.80477 c 0.3691,-0.44262 0.82881,-1.63325 1.02157,-2.64583 z"
       id="path826"
       inkscape:connector-curvature="0" />
  </g>
</svg>
